<?xml version="1.0" encoding="UTF-8"?>
<svg version="1.1" xmlns="http://www.w3.org/2000/svg" width="1024" height="1024">
<path d="M0 0 C44.22 0 88.44 0 134 0 C134.64079496 4.48556472 135.12518657 8.22889405 135.12698364 12.6497345 C135.12980347 13.72506439 135.13262329 14.80039429 135.13552856 15.90830994 C135.13249222 17.64716209 135.13249222 17.64716209 135.12939453 19.42114258 C135.13202301 21.27591217 135.13202301 21.27591217 135.13470459 23.16815186 C135.1383397 26.5417527 135.13750506 29.91529184 135.1343255 33.28888917 C135.13178583 36.82334616 135.13414366 40.35780059 135.13571167 43.89225769 C135.13752748 49.82099885 135.13514125 55.74972753 135.13037109 61.6784668 C135.12491704 68.53649669 135.12670176 75.39449691 135.1321975 82.2525261 C135.13673044 88.14479668 135.13737867 94.0370583 135.13475883 99.92933005 C135.13319867 103.4470965 135.13299544 106.96484897 135.13629532 110.48261452 C135.13971145 114.39703153 135.13498142 118.31141504 135.12939453 122.22583008 C135.13141876 123.395186 135.13344299 124.56454193 135.13552856 125.76933289 C135.13270874 126.83056366 135.12988892 127.89179443 135.12698364 128.98518372 C135.1264181 130.37359325 135.1264181 130.37359325 135.12584114 131.79005146 C135 134 135 134 134 136 C130.98500617 137.06570252 128.1141567 137.13458267 124.9375 137.125 C123.65166016 137.12886719 123.65166016 137.12886719 122.33984375 137.1328125 C120 137 120 137 117 136 C115.8125 133.4375 115.8125 133.4375 115 131 C113.85852005 131.00222061 112.7170401 131.00444122 111.54096985 131.00672913 C100.78502668 131.02699844 90.02908739 131.04199045 79.27312946 131.05181217 C73.74335751 131.05703134 68.21360097 131.06411153 62.68383789 131.07543945 C57.34760067 131.08630256 52.01137827 131.09228412 46.67513084 131.09487724 C44.63897658 131.0967253 42.60282314 131.10033406 40.56667519 131.10573006 C37.71541208 131.11298586 34.86421031 131.11398901 32.01293945 131.11352539 C31.17064789 131.11712067 30.32835632 131.12071594 29.46054077 131.12442017 C25.50412451 131.11745613 21.86258093 130.98306022 18 130 C18.33 130.99 18.66 131.98 19 133 C16 136 16 136 0 137 C0 91.79 0 46.58 0 0 Z M18 17 C18 48.68 18 80.36 18 113 C50.67 113 83.34 113 117 113 C117 81.32 117 49.64 117 17 C84.33 17 51.66 17 18 17 Z " fill="#C81F25" transform="translate(838,439)"/>
<path d="M0 0 C27.39 0 54.78 0 83 0 C85.38513918 4.77027835 83.37998427 10.68022027 83 16 C72.11 16 61.22 16 50 16 C50 20.29 50 24.58 50 29 C59.9 29 69.8 29 80 29 C80 34.28 80 39.56 80 45 C73 46 73 46 71 45 C72.60015345 47.7523537 74.20582623 50.50144822 75.8125 53.25 C76.26431641 54.02730469 76.71613281 54.80460938 77.18164062 55.60546875 C77.62314453 56.35957031 78.06464844 57.11367188 78.51953125 57.890625 C78.92276611 58.58188477 79.32600098 59.27314453 79.74145508 59.98535156 C81.04296358 62.06877506 82.52607733 64.03476978 84 66 C84 70.95 84 75.9 84 81 C55.62 81 27.24 81 -2 81 C-1.67 75.39 -1.34 69.78 -1 64 C10.22 64 21.44 64 33 64 C32.505 55.09 32.505 55.09 32 46 C19.13 45.505 19.13 45.505 6 45 C6 39.72 6 34.44 6 29 C14.91 29 23.82 29 33 29 C33 25.04 33 21.08 33 17 C22.11 16.67 11.22 16.34 0 16 C0 10.72 0 5.44 0 0 Z M50 45 C50 51.6 50 58.2 50 65 C54.62 65 59.24 65 64 65 C63.50628906 64.01257813 63.01257813 63.02515625 62.50390625 62.0078125 C60.3359375 57.671875 58.16796875 53.3359375 56 49 C56.9375 46.875 56.9375 46.875 58 45 C55.36 45 52.72 45 50 45 Z " fill="#CB2025" transform="translate(864,464)"/>
<path d="M0 0 C0.33 0 0.66 0 1 0 C1.33 38.28 1.66 76.56 2 116 C-4.6 116 -11.2 116 -18 116 C-18.33 114.02 -18.66 112.04 -19 110 C-19.845625 110.763125 -20.69125 111.52625 -21.5625 112.3125 C-29.51043113 118.75874829 -36.96270627 118.79016993 -47 118 C-52.71701499 116.89811722 -56.62352289 114.87630829 -61 111 C-61.63164062 110.74476563 -62.26328125 110.48953125 -62.9140625 110.2265625 C-68.88588667 106.71504042 -72.61374762 96.91029547 -74.50390625 90.39453125 C-77.71443154 74.8980588 -75.25348063 61.39085123 -67 48 C-61.74840585 40.86226993 -53.73972908 36.34246622 -45 35 C-34.16245883 34.06696665 -27.83695268 36.68789094 -19 43 C-18.67 29.47 -18.34 15.94 -18 2 C-12.06 2 -6.12 2 0 2 C0 1.34 0 0.68 0 0 Z M-50.3125 59.375 C-55.57237214 67.55702333 -55.68757978 77.25045623 -53.7265625 86.51953125 C-52.07873497 92.14517899 -48.80570385 95.79619743 -44 99 C-38.27585097 101.73198022 -32.9192356 101.27567276 -27.0078125 99.3515625 C-22.34496285 97.1702294 -20.74933117 94.16739188 -18.80932617 89.54541016 C-17.46941868 85.33126972 -17.45842234 81.3255486 -17.5625 76.9375 C-17.55541016 76.09123047 -17.54832031 75.24496094 -17.54101562 74.37304688 C-17.60108373 68.38009784 -18.17354749 62.04226304 -22.45166016 57.4375 C-27.69493865 52.96187944 -31.2272134 52.65434755 -37.94921875 52.71875 C-43.44256206 53.22517858 -46.46284803 55.42130338 -50.3125 59.375 Z " fill="#1C3042" transform="translate(200,434)"/>
<path d="M0 0 C20.79 0 41.58 0 63 0 C63.81235475 4.06177373 64.10732417 7.23350092 64.0625 11.3125 C64.05347656 12.38113281 64.04445313 13.44976562 64.03515625 14.55078125 C64.02355469 15.35902344 64.01195313 16.16726563 64 17 C60.68594065 18.65702967 56.98621952 18.14162705 53.34375 18.1328125 C52.05664124 18.13424759 52.05664124 18.13424759 50.74353027 18.13571167 C48.92781501 18.13639272 47.11209732 18.13454367 45.29638672 18.13037109 C42.51133779 18.12502178 39.72645014 18.13031861 36.94140625 18.13671875 C35.17968714 18.13605796 33.41796814 18.13477676 31.65625 18.1328125 C30.81976929 18.13483673 29.98328857 18.13686096 29.12145996 18.13894653 C23.22991834 18.11495917 23.22991834 18.11495917 21 17 C21 26.24 21 35.48 21 45 C23.64 44.67 26.28 44.34 29 44 C31.44695761 43.92414431 33.89563965 43.89179155 36.34375 43.90234375 C36.99831177 43.9037587 37.65287354 43.90517365 38.32727051 43.90663147 C40.38489674 43.91215693 42.44240756 43.92469441 44.5 43.9375 C45.90885258 43.94252467 47.31770689 43.94708587 48.7265625 43.95117188 C52.15108638 43.9628997 55.57552047 43.97931309 59 44 C59.144375 45.11375 59.28875 46.2275 59.4375 47.375 C59.78372035 50.82142047 59.78372035 50.82142047 61 53 C60.34 53 59.68 53 59 53 C59.37125 54.093125 59.7425 55.18625 60.125 56.3125 C60.41375 57.529375 60.7025 58.74625 61 60 C60.34 60.99 59.68 61.98 59 63 C56.26349128 63.32564759 53.74171865 63.46499301 51 63.4765625 C50.20851562 63.49214203 49.41703125 63.50772156 48.6015625 63.52377319 C46.06771863 63.57138893 43.53415098 63.59908255 41 63.625 C38.46604444 63.6614736 35.93224596 63.7020958 33.3984375 63.74765015 C31.8204056 63.77489706 30.24225882 63.79623958 28.6640625 63.81118774 C24.70254373 63.78532758 24.70254373 63.78532758 21 65 C21.33 74.24 21.66 83.48 22 93 C24.75730469 92.98839844 27.51460937 92.97679687 30.35546875 92.96484375 C33.03295781 92.9570397 35.7104456 92.9509706 38.38793945 92.94506836 C40.24536712 92.94004697 42.10279085 92.93322859 43.96020508 92.92456055 C46.63363621 92.91239883 49.30701496 92.90674967 51.98046875 92.90234375 C52.80773972 92.89718246 53.63501068 92.89202118 54.48735046 92.88670349 C58.4622534 92.8863188 62.11956833 93.01019881 66 94 C66.02684679 96.64590014 66.04676357 99.29153096 66.0625 101.9375 C66.07087891 102.69224609 66.07925781 103.44699219 66.08789062 104.22460938 C66.09652441 106.14994313 66.05224333 108.07535581 66 110 C62.54509429 113.45490571 42.79635913 111.95334132 41 112 C21.2 111.505 21.2 111.505 1 111 C0.67 74.37 0.34 37.74 0 0 Z " fill="#1C3043" transform="translate(51,439)"/>
<path d="M0 0 C1.73828125 1.546875 1.73828125 1.546875 3 4 C2.5622981 6.92584624 2.01844474 9.44215091 1.1875 12.25 C0.88102539 13.36761719 0.88102539 13.36761719 0.56835938 14.5078125 C0.06243141 16.34327208 -0.46657866 18.17234122 -1 20 C-4.21300201 19.42345086 -7.09261711 18.6308522 -10.125 17.4375 C-19.09267286 14.42353048 -28.28427927 15.59074099 -37 19 C-39.96425767 21.01600381 -39.96425767 21.01600381 -42 23 C-42.66 23 -43.32 23 -44 23 C-44.268125 23.5465625 -44.53625 24.093125 -44.8125 24.65625 C-45.65494981 26.31897989 -46.53394331 27.96341946 -47.4375 29.59375 C-55.12916005 43.9002377 -55.40108035 57.56970623 -51 73 C-48.19960862 80.06765445 -43.86902893 85.67490191 -36.9140625 88.99609375 C-24.94000631 93.64772524 -15.98283547 92.0429892 -4 88 C-2.67113749 87.64926744 -1.33955332 87.30738542 0 87 C0.77662055 92.99107278 1.42085333 98.98673249 2 105 C-10.92936 112.05237818 -26.06865285 113.00841456 -40.4375 109.9375 C-54.32955844 105.77959719 -64.34962501 97.03214405 -71.33496094 84.54760742 C-79.40637443 69.06787685 -78.76822944 50.23652481 -74.1875 33.7734375 C-69.94783866 20.30135574 -61.49421653 8.8972598 -49 2 C-34.99130981 -4.63899177 -14.38801355 -7.19400678 0 0 Z " fill="#1B2F42" transform="translate(368,441)"/>
<path d="M0 0 C8.02028932 7.36665341 12.81304539 17.80552545 13.32421875 28.65234375 C13.34362224 30.06106971 13.34721446 31.4700918 13.3359375 32.87890625 C13.33029785 33.62277588 13.3246582 34.36664551 13.31884766 35.13305664 C13.07690028 46.1320804 9.44837768 55.57835954 1.94921875 63.76953125 C-7.63763713 72.80426454 -17.27268291 74.94366057 -30.18359375 74.71484375 C-39.92537064 74.17307655 -48.18164376 70.53572809 -54.953125 63.4296875 C-63.42065595 53.10650615 -66.52336118 41.36906585 -65.7890625 28.12109375 C-64.15379651 16.70343297 -59.31167889 6.51016657 -50.1640625 -0.74609375 C-34.89507258 -11.44021455 -14.98236971 -11.34041027 0 0 Z M-40.546875 16.453125 C-45.09187327 23.68616511 -45.6645902 31.37981344 -44.3515625 39.69140625 C-42.8675287 45.87324243 -40.20509528 51.33217873 -34.8515625 55.00390625 C-30.13403022 57.31621967 -25.08912081 57.26847313 -19.9765625 56.50390625 C-14.68902872 53.90820785 -11.11366471 50.30984911 -8.890625 44.82421875 C-6.47785841 36.05989565 -6.85433409 25.67121414 -10.76953125 17.42578125 C-13.27560964 13.43552051 -16.75422304 11.34540101 -20.9765625 9.50390625 C-29.04608977 8.2001561 -35.36179052 10.01691317 -40.546875 16.453125 Z " fill="#1B2F41" transform="translate(437.9765625,477.49609375)"/>
<path d="M0 0 C6.97068417 5.46621996 9.43859856 12.56579568 12.1875 20.8125 C12.1875 27.0825 12.1875 33.3525 12.1875 39.8125 C-3.6525 39.8125 -19.4925 39.8125 -35.8125 39.8125 C-33.14817087 50.06546463 -33.14817087 50.06546463 -26.25 56.5625 C-14.31856713 60.90120286 -3.41541426 57.4591302 8.1875 53.8125 C9.1775 59.0925 10.1675 64.3725 11.1875 69.8125 C-0.97842946 78.06795213 -15.2586449 78.74536004 -29.56640625 76.125 C-39.80498713 72.98673766 -45.89280887 67.76566028 -51.33984375 58.62109375 C-58.35467141 45.24268239 -57.8923093 31.04101642 -53.8125 16.8125 C-49.69581279 7.12880217 -43.66236572 0.34091667 -34.0625 -4.0625 C-22.18931388 -8.17244904 -10.62967321 -6.72823271 0 0 Z M-32.1875 15 C-34.36876523 18.47731545 -34.36876523 18.47731545 -35.8125 25.8125 C-26.2425 25.8125 -16.6725 25.8125 -6.8125 25.8125 C-8.13656131 17.47123756 -8.13656131 17.47123756 -12.8125 11.8125 C-20.0951013 8.69548919 -26.37126924 9.64294536 -32.1875 15 Z " fill="#1C2F41" transform="translate(676.8125,475.1875)"/>
<path d="M0 0 C8.65356067 9.67162663 9.4327907 21.70197933 9.3203125 34.06640625 C9.3174826 35.25225815 9.31465271 36.43811005 9.31173706 37.65989685 C9.30060994 41.41920384 9.27551898 45.17826593 9.25 48.9375 C9.23996056 51.49804342 9.2308364 54.05859059 9.22265625 56.61914062 C9.20069508 62.87117624 9.16729234 69.12307061 9.125 75.375 C7.39999176 75.54297478 5.67466659 75.70769637 3.94921875 75.87109375 C2.98846436 75.96318115 2.02770996 76.05526855 1.0378418 76.15014648 C-2.94861244 76.45787629 -6.8783941 76.44051813 -10.875 76.375 C-12.20540157 71.39345733 -11.94721422 66.46814346 -11.8671875 61.359375 C-11.8496645 59.36589057 -11.83275687 57.37240064 -11.81640625 55.37890625 C-11.78552718 52.25423831 -11.75007209 49.12984835 -11.70361328 46.00537109 C-11.66099426 42.97750507 -11.63775287 39.94996078 -11.6171875 36.921875 C-11.59856659 35.99969177 -11.57994568 35.07750854 -11.5607605 34.12738037 C-11.53677122 27.98738434 -12.63091034 23.07206573 -14.875 17.375 C-15.37 15.89 -15.37 15.89 -15.875 14.375 C-22.91273295 12.66888292 -28.43774546 12.85272865 -34.875 16.375 C-39.20924521 20.82330429 -39.97357096 24.37987165 -40.08032227 30.41894531 C-40.10026749 31.41968079 -40.12021271 32.42041626 -40.14076233 33.45147705 C-40.16583107 35.06104279 -40.16583107 35.06104279 -40.19140625 36.703125 C-40.21218735 37.80726746 -40.23296844 38.91140991 -40.25437927 40.04901123 C-40.31973646 43.57427783 -40.37869564 47.09961859 -40.4375 50.625 C-40.48069836 53.01563265 -40.52431307 55.40625782 -40.56835938 57.796875 C-40.67540372 63.65617173 -40.77719585 69.51554214 -40.875 75.375 C-48.09471751 76.44020422 -53.2825429 76.06522337 -60.875 75.375 C-60.875 49.305 -60.875 23.235 -60.875 -3.625 C-58.51841603 -4.80329199 -57.34926764 -4.66914372 -54.7421875 -4.50390625 C-53.93652344 -4.45556641 -53.13085938 -4.40722656 -52.30078125 -4.35742188 C-51.45902344 -4.30134766 -50.61726562 -4.24527344 -49.75 -4.1875 C-48.47576172 -4.10918945 -48.47576172 -4.10918945 -47.17578125 -4.02929688 C-45.07520876 -3.89948622 -42.97505809 -3.7628826 -40.875 -3.625 C-40.545 -1.315 -40.215 0.995 -39.875 3.375 C-37.43570254 1.44923885 -35.07409405 -0.42590595 -32.875 -2.625 C-21.0236306 -7.50892917 -11.08745157 -6.26682046 0 0 Z " fill="#1C3043" transform="translate(601.875,474.625)"/>
<path d="M0 0 C0.83265381 0.04713135 1.66530762 0.0942627 2.52319336 0.14282227 C3.871875 0.21533203 3.871875 0.21533203 5.24780273 0.28930664 C6.19333008 0.34538086 7.13885742 0.40145508 8.11303711 0.45922852 C9.53712891 0.53753906 9.53712891 0.53753906 10.98999023 0.61743164 C13.34380663 0.74754209 15.6972441 0.88251963 18.05053711 1.02172852 C18.04530029 2.09430908 18.04006348 3.16688965 18.03466797 4.27197266 C18.01630105 8.3256748 18.00499172 12.37937343 17.99560547 16.43310547 C17.99063654 18.1736717 17.9838591 19.91423389 17.97509766 21.65478516 C16.84436834 41.54835991 16.84436834 41.54835991 22.05053711 60.02172852 C25.02836838 62.99327744 27.27148936 63.45341052 31.42553711 63.45922852 C36.3812815 63.31366593 39.35139582 62.53117025 43.05053711 59.02172852 C44.80150692 55.45771433 45.31283505 52.53792217 45.36938477 48.58886719 C45.38925446 47.52814499 45.40912415 46.46742279 45.42959595 45.3745575 C45.44114716 44.24105362 45.45269836 43.10754974 45.46459961 41.93969727 C45.48396576 40.77038162 45.50333191 39.60106598 45.52328491 38.39631653 C45.58298906 34.66736103 45.62943008 30.93837451 45.67553711 27.20922852 C45.71372526 24.67861621 45.75277748 22.14801679 45.79272461 19.61743164 C45.8886832 13.41897841 45.97375769 7.22044738 46.05053711 1.02172852 C52.02083396 -1.96341991 59.37554231 0.02172852 66.05053711 0.02172852 C66.05053711 25.76172852 66.05053711 51.50172852 66.05053711 78.02172852 C66.71053711 78.02172852 67.37053711 78.02172852 68.05053711 78.02172852 C67.72053711 78.68172852 67.39053711 79.34172852 67.05053711 80.02172852 C63.75980049 80.24704824 60.46804292 80.44908833 57.17553711 80.64672852 C55.76981445 80.7434082 55.76981445 80.7434082 54.33569336 80.84204102 C53.43979492 80.89360352 52.54389648 80.94516602 51.62084961 80.99829102 C50.79343262 81.05065918 49.96601563 81.10302734 49.11352539 81.15698242 C47.05053711 81.02172852 47.05053711 81.02172852 45.05053711 79.02172852 C45.42553711 76.89672852 45.42553711 76.89672852 46.05053711 75.02172852 C45.03733398 75.65401367 45.03733398 75.65401367 44.00366211 76.29907227 C43.11163086 76.84692383 42.21959961 77.39477539 41.30053711 77.95922852 C40.41881836 78.50450195 39.53709961 79.04977539 38.62866211 79.61157227 C31.81922476 83.33612815 23.09202171 82.89815885 15.60131836 81.59594727 C8.68734356 79.38184531 3.95356644 74.11676788 0.61303711 67.83422852 C-0.86484957 64.79806801 -0.94946289 63.62651135 -0.94946289 60.02172852 C-1.60946289 59.69172852 -2.26946289 59.36172852 -2.94946289 59.02172852 C-2.9725914 51.47674618 -2.99038058 43.93176751 -3.00127506 36.38675785 C-3.00650278 32.88363967 -3.01359839 29.38054567 -3.02490234 25.87744141 C-3.03780495 21.85392011 -3.04269201 17.83042437 -3.04711914 13.80688477 C-3.05486107 11.91160789 -3.05486107 11.91160789 -3.0627594 9.9780426 C-3.06283493 8.81691452 -3.06291046 7.65578644 -3.06298828 6.45947266 C-3.0663192 4.91725792 -3.0663192 4.91725792 -3.06971741 3.34388733 C-2.92078262 0.46790201 -2.89287783 0.03224372 0 0 Z " fill="#1B2F42" transform="translate(215.949462890625,469.978271484375)"/>
<path d="M0 0 C5.38641875 4.2897826 8.41638378 10.75253769 9.75 17.4375 C9.90078179 19.94144585 10.00630683 22.42365029 10.06640625 24.9296875 C10.09764587 26.03200211 10.09764587 26.03200211 10.1295166 27.15658569 C10.1953776 29.54178873 10.25427655 31.92709923 10.3125 34.3125 C10.35534762 35.94498802 10.3982351 37.577475 10.44116211 39.20996094 C10.74733085 51.28704282 10.86974431 63.35662949 10.75 75.4375 C9.47382812 75.49808594 8.19765625 75.55867187 6.8828125 75.62109375 C5.21352984 75.70549568 3.54425963 75.79014386 1.875 75.875 C1.03324219 75.91431641 0.19148437 75.95363281 -0.67578125 75.99414062 C-1.48144531 76.03603516 -2.28710938 76.07792969 -3.1171875 76.12109375 C-3.86081543 76.15775146 -4.60444336 76.19440918 -5.37060547 76.23217773 C-7.33864312 76.33705865 -7.33864312 76.33705865 -9.25 77.4375 C-10.18754151 71.94592293 -10.35405204 66.69980903 -10.27734375 61.13671875 C-10.26469483 59.33659048 -10.25233407 57.53646017 -10.24023438 55.73632812 C-10.21549373 52.93230631 -10.18754054 50.12839437 -10.15405273 47.32446289 C-10.12356498 44.5952084 -10.10598981 41.86609078 -10.08984375 39.13671875 C-10.07638412 38.31346603 -10.0629245 37.49021332 -10.04905701 36.64201355 C-10.01923967 29.60409919 -10.27814696 22.2792882 -14.375 16.375 C-18.80118034 13.39213933 -22.50766656 13.00449998 -27.625 13.8125 C-31.86500615 14.92829109 -33.64553754 15.61906291 -36.34179688 19.26977539 C-39.16660197 24.41243029 -38.85297559 29.75988928 -38.859375 35.49609375 C-38.87591125 36.64038345 -38.89244751 37.78467316 -38.90948486 38.96363831 C-38.95787886 42.60081395 -38.97931776 46.2375717 -39 49.875 C-39.02816671 52.34832822 -39.05809511 54.82163704 -39.08984375 57.29492188 C-39.16363625 63.34241352 -39.21326398 69.38967432 -39.25 75.4375 C-45.52 75.4375 -51.79 75.4375 -58.25 75.4375 C-58.745 76.4275 -58.745 76.4275 -59.25 77.4375 C-60.47512902 73.63502235 -60.38364718 69.86423537 -60.36352539 65.91503906 C-60.36374443 64.7876255 -60.36374443 64.7876255 -60.3639679 63.63743591 C-60.36327262 61.15930266 -60.35549826 58.68124508 -60.34765625 56.203125 C-60.3457907 54.48248333 -60.34436744 52.76184112 -60.34336853 51.04119873 C-60.33955413 46.51697315 -60.32973302 41.99277977 -60.31866455 37.46856689 C-60.30842729 32.85014278 -60.30386595 28.23171345 -60.29882812 23.61328125 C-60.28810979 14.55467109 -60.2705217 5.49609326 -60.25 -3.5625 C-53.65 -3.5625 -47.05 -3.5625 -40.25 -3.5625 C-39.92 -0.9225 -39.59 1.7175 -39.25 4.4375 C-38.82589844 4.03917969 -38.40179688 3.64085937 -37.96484375 3.23046875 C-26.77512944 -6.8771633 -12.77856328 -8.49497709 0 0 Z " fill="#1B2F42" transform="translate(519.25,474.5625)"/>
<path d="M0 0 C-0.33 6.6 -0.66 13.2 -1 20 C5.27 19.67 11.54 19.34 18 19 C19.59412284 22.18824568 19.10174735 25.62896662 19.0625 29.125 C19.05798828 29.87910156 19.05347656 30.63320313 19.04882812 31.41015625 C19.03703499 33.27347127 19.01909942 35.13674555 19 37 C14.65507229 38.13896163 10.61379215 37.93100471 6.1875 37.5625 C5.49462891 37.51029297 4.80175781 37.45808594 4.08789062 37.40429688 C2.39145563 37.27560181 0.69565137 37.13863816 -1 37 C-0.90612967 42.15981558 -0.79996225 47.31918043 -0.68261719 52.47851562 C-0.64444112 54.23202671 -0.60956876 55.98561308 -0.578125 57.73925781 C-0.53222641 60.26654886 -0.4742743 62.79332678 -0.4140625 65.3203125 C-0.40251129 66.09867462 -0.39096008 66.87703674 -0.37905884 67.6789856 C-0.25965481 72.12779945 0.23136583 75.84207429 2 80 C4.45355638 81.97831798 5.85295759 82.00114282 9.015625 81.9765625 C10.08296875 81.86054687 11.1503125 81.74453125 12.25 81.625 C13.32765625 81.51414062 14.4053125 81.40328125 15.515625 81.2890625 C16.33546875 81.19367188 17.1553125 81.09828125 18 81 C19.59412284 84.18824568 19.10174735 87.62896662 19.0625 91.125 C19.05798828 91.87910156 19.05347656 92.63320313 19.04882812 93.41015625 C19.03703499 95.27347127 19.01909942 97.13674555 19 99 C10.58553828 101.71818519 0.87975789 102.71451561 -7.625 99.75 C-13.7433184 96.57753861 -16.43355348 93.82956022 -19.203125 87.609375 C-21.5348089 79.97425322 -21.15547303 71.97769971 -21.13037109 64.07348633 C-21.12502132 62.07048129 -21.13084771 60.06745671 -21.13671875 58.06445312 C-21.12994202 51.29110663 -20.92825542 44.71143404 -20 38 C-26.93 37.505 -26.93 37.505 -34 37 C-33.67 36.01 -33.34 35.02 -33 34 C-32.77548542 31.77425665 -32.59217122 29.54418481 -32.4375 27.3125 C-32.35371094 26.13300781 -32.26992188 24.95351563 -32.18359375 23.73828125 C-32.12300781 22.83464844 -32.06242188 21.93101562 -32 21 C-32.99 20.67 -33.98 20.34 -35 20 C-30.38 20 -25.76 20 -21 20 C-20.505 11.09 -20.505 11.09 -20 2 C-17.36 1.67 -14.72 1.34 -12 1 C-9.64050807 0.49115831 -7.31691185 -0.09155906 -4.98046875 -0.6953125 C-3 -1 -3 -1 0 0 Z " fill="#1C2F41" transform="translate(795,451)"/>
<path d="M0 0 C-0.99 5.61 -1.98 11.22 -3 17 C-4.60875 16.505 -6.2175 16.01 -7.875 15.5 C-14.98449901 13.59257344 -21.49103212 12.55726692 -28.375 15.6875 C-34.53169463 19.26754979 -36.66540754 23.82863584 -38.4609375 30.52734375 C-40.01421829 37.65217522 -38.58971882 44.28129174 -36 51 C-32.86317044 55.18243941 -29.12076486 57.84194717 -24 59 C-16.36435898 59.63137083 -9.37465359 58.99990606 -2 57 C-1.46585888 58.89212702 -0.94821671 60.78891636 -0.4375 62.6875 C-0.00244141 64.27111328 -0.00244141 64.27111328 0.44140625 65.88671875 C1.01091313 69.06082355 1.08369808 70.97311915 0 74 C-9.85427874 79.30615009 -23.62657014 79.74352161 -34.4375 76.9375 C-44.66272476 73.19868482 -52.34787021 66.04416725 -57.31640625 56.4609375 C-61.59706084 45.87116481 -62.01771144 31.67941228 -58.375 20.8125 C-52.98461423 8.74560133 -46.15201225 1.92900366 -33.96484375 -3.01953125 C-23.28563763 -6.55112642 -9.571096 -6.38073066 0 0 Z " fill="#1C2F42" transform="translate(757,474)"/>
<path d="M0 0 C44.22 0 88.44 0 134 0 C134 1.98 134 3.96 134 6 C133.67 4.68 133.34 3.36 133 2 C89.77 2 46.54 2 2 2 C2 45.56 2 89.12 2 134 C6.95 134 11.9 134 17 134 C17 132.35 17 130.7 17 129 C18.98 129 20.96 129 23 129 C23 129.33 23 129.66 23 130 C21.35 130 19.7 130 18 130 C18.33 130.99 18.66 131.98 19 133 C16 136 16 136 0 137 C0 91.79 0 46.58 0 0 Z " fill="#B21E22" transform="translate(838,439)"/>
<path d="M0 0 C20.79 0 41.58 0 63 0 C63.81235475 4.06177373 64.10732417 7.23350092 64.0625 11.3125 C64.05347656 12.38113281 64.04445313 13.44976562 64.03515625 14.55078125 C64.02355469 15.35902344 64.01195313 16.16726563 64 17 C60.71377082 18.64311459 57.09273349 17.99748737 53.4921875 17.87890625 C52.65156769 17.85529526 51.81094788 17.83168427 50.94485474 17.80735779 C48.2547338 17.73066362 45.5648966 17.64666417 42.875 17.5625 C41.05339939 17.50928506 39.23178486 17.45654463 37.41015625 17.40429688 C32.93992382 17.27504071 28.4699324 17.13923154 24 17 C24 16.67 24 16.34 24 16 C36.21 16 48.42 16 61 16 C61 11.38 61 6.76 61 2 C41.86 2 22.72 2 3 2 C3 37.31 3 72.62 3 109 C22.8 109 42.6 109 63 109 C63 106.03 63 103.06 63 100 C63.99 98.515 63.99 98.515 65 97 C65.19393875 99.14526099 65.37998676 101.29123677 65.5625 103.4375 C65.71912109 105.22994141 65.71912109 105.22994141 65.87890625 107.05859375 C65.93884766 108.51458984 65.93884766 108.51458984 66 110 C62.54509429 113.45490571 42.79635913 111.95334132 41 112 C21.2 111.505 21.2 111.505 1 111 C0.67 74.37 0.34 37.74 0 0 Z " fill="#16232F" transform="translate(51,439)"/>
<path d="M0 0 C6.27 0 12.54 0 19 0 C19 25.74 19 51.48 19 78 C19.66 78 20.32 78 21 78 C20.67 78.66 20.34 79.32 20 80 C13.73 80 7.46 80 1 80 C4 78 4 78 17 78 C17 53.25 17 28.5 17 3 C11.72 3 6.44 3 1 3 C1.02094727 4.46751709 1.04189453 5.93503418 1.06347656 7.44702148 C1.13618062 12.92055404 1.1819105 18.39404435 1.21972656 23.86791992 C1.23977282 26.23159985 1.26701719 28.59523061 1.30175781 30.95874023 C1.35058271 34.36714857 1.37303948 37.77489803 1.390625 41.18359375 C1.41127014 42.23083115 1.43191528 43.27806854 1.45318604 44.35704041 C1.45514476 50.84253132 0.73690927 56.51914254 -3 62 C-5.75 63.0625 -5.75 63.0625 -8 63 C-6.73046875 61.53515625 -5.4609375 60.0703125 -4.19140625 58.60546875 C-1.88080506 55.49183894 -1.8607391 52.54344856 -1.81054688 48.81005859 C-1.79382935 47.75241302 -1.77711182 46.69476746 -1.7598877 45.60507202 C-1.74631226 44.46438263 -1.73273682 43.32369324 -1.71875 42.1484375 C-1.70034058 40.97866364 -1.68193115 39.80888977 -1.66296387 38.60366821 C-1.58412822 33.58743603 -1.51635728 28.57106844 -1.44775391 23.5546875 C-1.39618313 19.89836662 -1.33888452 16.24216699 -1.28125 12.5859375 C-1.26767456 11.44119965 -1.25409912 10.29646179 -1.2401123 9.11703491 C-1.22339478 8.06569366 -1.20667725 7.01435242 -1.18945312 5.93115234 C-1.17692505 5.00088226 -1.16439697 4.07061218 -1.15148926 3.1121521 C-1 1 -1 1 0 0 Z " fill="#0F1821" transform="translate(263,470)"/>
<path d="M0 0 C0.33 0 0.66 0 1 0 C1 25.08 1 50.16 1 76 C6.28 76 11.56 76 17 76 C16.9685791 74.53248291 16.9371582 73.06496582 16.90478516 71.55297852 C16.79573156 66.07957129 16.7271374 60.60625902 16.67041016 55.13208008 C16.64033961 52.76830872 16.59947154 50.40464801 16.54736328 48.04125977 C16.47412262 44.63269682 16.44044475 41.22561577 16.4140625 37.81640625 C16.38309479 36.76916885 16.35212708 35.72193146 16.32022095 34.64295959 C16.31690529 27.32402441 17.96099443 22.42119873 23 17 C27.78419867 13.54678819 32.04479199 12.24206443 38 13 C43.72891818 14.58039122 46.09954795 16.86713088 49.0546875 21.76953125 C51.56335517 27.68874297 51.13179424 34.12398449 51.09765625 40.4296875 C51.0962413 41.42001984 51.09482635 42.41035217 51.09336853 43.43069458 C51.08779252 46.57882773 51.07524442 49.72688852 51.0625 52.875 C51.0574819 55.01562397 51.05291954 57.15624906 51.04882812 59.296875 C51.03783094 64.53127449 51.02111675 69.76563207 51 75 C50.67 75 50.34 75 50 75 C49.98541748 73.75500732 49.97083496 72.51001465 49.95581055 71.22729492 C49.89738122 66.5621416 49.82015475 61.89744865 49.73754883 57.23266602 C49.70450788 55.22232595 49.6764127 53.21189776 49.65356445 51.20141602 C49.80382962 33.47985795 49.80382962 33.47985795 44 17 C38.79663956 15.21599071 33.48573406 15.52154327 28.3125 17.1875 C24.41157281 19.32196959 21.79474958 21.5094839 20.41127014 25.84490967 C19.94685365 28.27849138 19.83847463 30.56629252 19.79467773 33.04394531 C19.77473251 34.04468079 19.75478729 35.04541626 19.73423767 36.07647705 C19.70916893 37.68604279 19.70916893 37.68604279 19.68359375 39.328125 C19.66281265 40.43226746 19.64203156 41.53640991 19.62062073 42.67401123 C19.55526354 46.19927783 19.49630436 49.72461859 19.4375 53.25 C19.39430164 55.64063265 19.35068693 58.03125782 19.30664062 60.421875 C19.19959628 66.28117173 19.09780415 72.14054214 19 78 C11.98571905 79.01820207 7.5259179 78.75259179 0 78 C0 52.26 0 26.52 0 0 Z " fill="#0C151D" transform="translate(542,472)"/>
<path d="M0 0 C6.6 0 13.2 0 20 0 C19.67 3.63 19.34 7.26 19 11 C18.67 11 18.34 11 18 11 C18 8.03 18 5.06 18 2 C13.05 2 8.1 2 3 2 C3 26.75 3 51.5 3 77 C8.28 77 13.56 77 19 77 C19 60.83 19 44.66 19 28 C19.33 28 19.66 28 20 28 C20 44.83 20 61.66 20 79 C14.06 79 8.12 79 2 79 C1.505 79.99 1.505 79.99 1 81 C-0.22512902 77.19752235 -0.13364718 73.42673537 -0.11352539 69.47753906 C-0.11374443 68.3501255 -0.11374443 68.3501255 -0.1139679 67.19993591 C-0.11327262 64.72180266 -0.10549826 62.24374508 -0.09765625 59.765625 C-0.0957907 58.04498333 -0.09436744 56.32434112 -0.09336853 54.60369873 C-0.08955413 50.07947315 -0.07973302 45.55527977 -0.06866455 41.03106689 C-0.05842729 36.41264278 -0.05386595 31.79421345 -0.04882812 27.17578125 C-0.03810979 18.11717109 -0.0205217 9.05859326 0 0 Z " fill="#0B131C" transform="translate(459,471)"/>
<path d="M0 0 C0.66 0 1.32 0 2 0 C2 4.62 2 9.24 2 14 C4.31 14 6.62 14 9 14 C11.375 14.5 11.375 14.5 13 16 C13.98642917 21.8455817 14.14622291 27.58712805 14.17578125 33.50390625 C14.1989632 35.31446496 14.22307985 37.1250119 14.24804688 38.93554688 C14.28319741 41.75520963 14.31255658 44.57443135 14.32592773 47.39428711 C14.34144924 50.1396827 14.38165451 52.88384047 14.42578125 55.62890625 C14.42387283 56.46450577 14.42196442 57.30010529 14.41999817 58.161026 C14.53914592 63.90132808 15.68451032 67.28051537 19 72 C23.90707801 75.88477009 27.61670679 77.13707239 33.765625 77.09765625 C34.65507813 77.09443359 35.54453125 77.09121094 36.4609375 77.08789062 C37.38132812 77.07951172 38.30171875 77.07113281 39.25 77.0625 C40.18585937 77.05798828 41.12171875 77.05347656 42.0859375 77.04882812 C44.39065247 77.03706938 46.69533446 77.01913468 49 77 C49 72.05 49 67.1 49 62 C49.66 62 50.32 62 51 62 C51 67.28 51 72.56 51 78 C40.99892254 80.8574507 30.49233823 81.92195316 21 77 C15.8462368 73.95459447 13.70504288 69.58317962 12 64 C10.75793469 57.05572579 10.84727333 50.11291378 10.86962891 43.07348633 C10.87497868 41.07048129 10.86915229 39.06745671 10.86328125 37.06445312 C10.87005798 30.29110663 11.07174458 23.71143404 12 17 C5.07 16.505 5.07 16.505 -2 16 C-1.67 15.01 -1.34 14.02 -1 13 C-0.77548542 10.77425665 -0.59217122 8.54418481 -0.4375 6.3125 C-0.35371094 5.13300781 -0.26992188 3.95351563 -0.18359375 2.73828125 C-0.12300781 1.83464844 -0.06242188 0.93101562 0 0 Z " fill="#16212C" transform="translate(763,472)"/>
<path d="M0 0 C0.33 0 0.66 0 1 0 C1 35.64 1 71.28 1 108 C20.8 108 40.6 108 61 108 C61 105.03 61 102.06 61 99 C61.99 97.515 61.99 97.515 63 96 C63.19393875 98.14526099 63.37998676 100.29123677 63.5625 102.4375 C63.71912109 104.22994141 63.71912109 104.22994141 63.87890625 106.05859375 C63.93884766 107.51458984 63.93884766 107.51458984 64 109 C60.54509429 112.45490571 40.79635913 110.95334132 39 111 C19.2 110.505 19.2 110.505 -1 110 C-0.67 73.7 -0.34 37.4 0 0 Z " fill="#08111A" transform="translate(53,440)"/>
<path d="M0 0 C11.55 0 23.1 0 35 0 C35 0.33 35 0.66 35 1 C23.78 1 12.56 1 1 1 C1 5.29 1 9.58 1 14 C28.06 14 55.12 14 83 14 C83 9.71 83 5.42 83 1 C83.66 1 84.32 1 85 1 C85 5.95 85 10.9 85 16 C56.62 16 28.24 16 -1 16 C-0.67 10.72 -0.34 5.44 0 0 Z " fill="#B31317" transform="translate(863,529)"/>
<path d="M0 0 C6.87497479 0.15549216 13.00863125 2.64890027 18.9375 6 C27.59106067 15.67162663 28.3702907 27.70197933 28.2578125 40.06640625 C28.2549826 41.25225815 28.25215271 42.43811005 28.24923706 43.65989685 C28.23810994 47.41920384 28.21301898 51.17826593 28.1875 54.9375 C28.17746056 57.49804342 28.1683364 60.05859059 28.16015625 62.61914062 C28.13819508 68.87117624 28.10479234 75.12307061 28.0625 81.375 C26.32738456 81.55624123 24.59155916 81.73069276 22.85546875 81.90234375 C21.88891357 82.00023193 20.9223584 82.09812012 19.92651367 82.19897461 C16.14949236 82.43111444 12.78552625 82.007212 9.0625 81.375 C9.5575 80.385 9.5575 80.385 10.0625 79.375 C15.3425 79.375 20.6225 79.375 26.0625 79.375 C25.99321049 72.18879697 25.90504507 65.00315301 25.80004883 57.81738281 C25.76697502 55.3773422 25.73888962 52.93722831 25.71606445 50.49707031 C25.68219428 46.97169011 25.62986321 43.446971 25.57421875 39.921875 C25.56782883 38.8463739 25.5614389 37.7708728 25.55485535 36.66278076 C25.36992766 26.94492721 24.35972286 16.66372664 17.83984375 8.99609375 C11.0994051 2.84822114 2.8019452 2.64515287 -5.9375 2.375 C-3.9375 0.375 -3.9375 0.375 0 0 Z " fill="#1B2733" transform="translate(582.9375,468.625)"/>
<path d="M0 0 C27.39 0 54.78 0 83 0 C85.38513918 4.77027835 83.37998427 10.68022027 83 16 C71.78 16 60.56 16 49 16 C49 15.67 49 15.34 49 15 C59.89 15 70.78 15 82 15 C82 10.71 82 6.42 82 2 C55.6 2 29.2 2 2 2 C2 4.97 2 7.94 2 11 C1.67 11 1.34 11 1 11 C0.67 7.37 0.34 3.74 0 0 Z " fill="#B01318" transform="translate(864,464)"/>
<path d="M0 0 C0.33 0 0.66 0 1 0 C1 33.66 1 67.32 1 102 C0.67 102 0.34 102 0 102 C0 69.66 0 37.32 0 4 C-5.28 4 -10.56 4 -16 4 C-16 17.86 -16 31.72 -16 46 C-18 44 -18 44 -18.24050903 42.16500854 C-18.23606781 41.42332428 -18.23162659 40.68164001 -18.22705078 39.91748047 C-18.22689972 39.07675995 -18.22674866 38.23603943 -18.22659302 37.36984253 C-18.21627045 36.46146637 -18.20594788 35.55309021 -18.1953125 34.6171875 C-18.1924826 33.68778351 -18.18965271 32.75837952 -18.18673706 31.80081177 C-18.17552069 28.8254115 -18.1504136 25.85030965 -18.125 22.875 C-18.11497208 20.86068142 -18.1058459 18.84635814 -18.09765625 16.83203125 C-18.07557661 11.88790544 -18.04103693 6.94400335 -18 2 C-12.06 2 -6.12 2 0 2 C0 1.34 0 0.68 0 0 Z " fill="#0C151C" transform="translate(200,434)"/>
<path d="M0 0 C0.33 0 0.66 0 1 0 C1 4.95 1 9.9 1 15 C10.9 14.505 10.9 14.505 21 14 C22.59412284 17.18824568 22.10174735 20.62896662 22.0625 24.125 C22.05798828 24.87910156 22.05347656 25.63320313 22.04882812 26.41015625 C22.03703499 28.27347127 22.01909942 30.13674555 22 32 C17.65507229 33.13896163 13.61379215 32.93100471 9.1875 32.5625 C8.49462891 32.51029297 7.80175781 32.45808594 7.08789062 32.40429688 C5.39145563 32.27560181 3.69565137 32.13863816 2 32 C2.09387033 37.15981558 2.20003775 42.31918043 2.31738281 47.47851562 C2.35555888 49.23202671 2.39043124 50.98561308 2.421875 52.73925781 C2.46777359 55.26654886 2.5257257 57.79332678 2.5859375 60.3203125 C2.59748871 61.09867462 2.60903992 61.87703674 2.62094116 62.6789856 C2.74028397 67.12551852 3.22149981 70.84777255 5 75 C7.74562144 77.00641567 10.40869931 77.33017935 13.75 77.625 C14.54921875 77.69976563 15.3484375 77.77453125 16.171875 77.8515625 C17.07679688 77.92503906 17.07679688 77.92503906 18 78 C17.67 78.66 17.34 79.32 17 80 C8.09811896 80.77783427 8.09811896 80.77783427 4 77.875 C0.0701414 72.22582827 -0.29207377 67.00186051 -0.23046875 60.35546875 C-0.23001053 59.54507645 -0.22955231 58.73468414 -0.2290802 57.8997345 C-0.2260735 56.19787113 -0.21823495 54.49601012 -0.20581055 52.79418945 C-0.18743643 50.17845018 -0.18530188 47.56306301 -0.18554688 44.94726562 C-0.18063553 43.29166358 -0.1748089 41.63606395 -0.16796875 39.98046875 C-0.16685593 39.19512253 -0.1657431 38.40977631 -0.16459656 37.60063171 C-0.11608788 32.11608788 -0.11608788 32.11608788 1 31 C2.41570123 30.91348389 3.835595 30.89295096 5.25390625 30.90234375 C6.53491211 30.90717773 6.53491211 30.90717773 7.84179688 30.91210938 C8.73962891 30.92048828 9.63746094 30.92886719 10.5625 30.9375 C11.46419922 30.94201172 12.36589844 30.94652344 13.29492188 30.95117188 C15.52997589 30.96299756 17.76499602 30.98093362 20 31 C20 26.38 20 21.76 20 17 C18.72382812 17.01160156 17.44765625 17.02320313 16.1328125 17.03515625 C14.46354313 17.04453417 12.79427217 17.05363437 11.125 17.0625 C10.28324219 17.07087891 9.44148437 17.07925781 8.57421875 17.08789062 C7.76855469 17.09111328 6.96289062 17.09433594 6.1328125 17.09765625 C5.01737061 17.10551147 5.01737061 17.10551147 3.87939453 17.11352539 C2 17 2 17 0 16 C0 10.72 0 5.44 0 0 Z " fill="#131721" transform="translate(792,456)"/>
<path d="M0 0 C5.39274566 -0.43673644 7.7883774 1.47432217 11.84375 4.79296875 C18.34317971 11.44546474 20.10132754 19.523794 20.31640625 28.4921875 C20.33723267 29.2270639 20.35805908 29.96194031 20.3795166 30.71908569 C20.4453776 33.10428873 20.50427655 35.48959923 20.5625 37.875 C20.60534762 39.50748802 20.6482351 41.139975 20.69116211 42.77246094 C20.99733085 54.84954282 21.11974431 66.91912949 21 79 C15.72 79 10.44 79 5 79 C5.495 78.01 5.495 78.01 6 77 C9.96 77 13.92 77 18 77 C17.95950954 69.7232353 17.90218774 62.44705629 17.81609726 55.17067814 C17.77676641 51.79109458 17.74450844 48.41176593 17.72900391 45.03198242 C17.70749536 41.13678468 17.66080032 37.24256016 17.609375 33.34765625 C17.60814636 32.1473024 17.60691772 30.94694855 17.60565186 29.71022034 C17.43450364 19.81120165 15.1823824 12.01914644 8 5 C5.41437647 3.45440381 2.77400438 2.17017554 0 1 C0 0.67 0 0.34 0 0 Z " fill="#0F1A24" transform="translate(509,471)"/>
<path d="M0 0 C7.56395961 -0.02338139 15.12791537 -0.04104445 22.69190311 -0.05181217 C26.20582944 -0.05698544 29.71973068 -0.06397936 33.23364258 -0.07543945 C37.29248263 -0.0885908 41.35129718 -0.09327403 45.41015625 -0.09765625 C46.64516373 -0.10281754 47.8801712 -0.10797882 49.15260315 -0.11329651 C57.81334382 -0.11384159 66.36919671 0.32870737 75 1 C73 3 73 3 70.21591187 3.24050903 C69.03010529 3.23606781 67.84429871 3.23162659 66.62255859 3.22705078 C65.96877731 3.22734283 65.31499603 3.22763489 64.6414032 3.22793579 C62.47694704 3.22654065 60.31283364 3.2109712 58.1484375 3.1953125 C56.64914132 3.19158302 55.1498427 3.18873574 53.65054321 3.18673706 C49.70163257 3.17909548 45.75286871 3.1594426 41.80401611 3.1373291 C37.77561428 3.1168819 33.74718876 3.10773776 29.71875 3.09765625 C21.81243259 3.07619711 13.90623455 3.04205495 6 3 C6 2.34 6 1.68 6 1 C4.02 1 2.04 1 0 1 C0 0.67 0 0.34 0 0 Z " fill="#BE1D21" transform="translate(855,567)"/>
<path d="M0 0 C8.58 0 17.16 0 26 0 C26 0.33 26 0.66 26 1 C18.08 1 10.16 1 2 1 C2 4.96 2 8.92 2 13 C10.91 13 19.82 13 29 13 C29 20.26 29 27.52 29 35 C17.12 35 5.24 35 -7 35 C-7 34.67 -7 34.34 -7 34 C4.22 34 15.44 34 27 34 C26.505 25.09 26.505 25.09 26 16 C13.13 15.505 13.13 15.505 0 15 C0 10.05 0 5.1 0 0 Z " fill="#BE1C21" transform="translate(870,494)"/>
<path d="M0 0 C0.33 0 0.66 0 1 0 C2.27170761 4.88232525 2.11721478 9.68644821 2.10546875 14.69140625 C2.11893335 16.62566214 2.13395805 18.55990768 2.15039062 20.49414062 C2.17311923 23.51997792 2.1875739 26.54464628 2.17504883 29.57055664 C1.92008604 46.25548896 1.92008604 46.25548896 9 61 C13.25298598 65.12513618 17.52768323 67.1373981 23.44921875 67.09765625 C24.29677734 67.09443359 25.14433594 67.09121094 26.01757812 67.08789062 C26.89865234 67.07951172 27.77972656 67.07113281 28.6875 67.0625 C29.58017578 67.05798828 30.47285156 67.05347656 31.39257812 67.04882812 C33.59511987 67.03704983 35.79752599 67.02060164 38 67 C38 67.66 38 68.32 38 69 C30.65791186 71.2535122 20.7915209 71.33366804 13.73828125 68.1015625 C7.72659745 64.29191119 3.2497718 58.77726286 1 52 C1 50.68 1 49.36 1 48 C0.34 47.67 -0.32 47.34 -1 47 C-1.02478342 41.27083651 -1.04289954 35.54170448 -1.05493164 29.8125 C-1.05994955 27.86490332 -1.06676534 25.91731039 -1.07543945 23.96972656 C-1.08761652 21.16470411 -1.09325383 18.35973163 -1.09765625 15.5546875 C-1.10539818 14.25590164 -1.10539818 14.25590164 -1.11329651 12.93087769 C-1.11370419 8.5027179 -0.89613596 4.35974798 0 0 Z " fill="#0E1720" transform="translate(214,482)"/>
<path d="M0 0 C0.85049423 0.00222061 1.70098846 0.00444122 2.57725525 0.00672913 C4.01863609 0.00684242 4.01863609 0.00684242 5.48913574 0.00695801 C7.05630592 0.01469994 7.05630592 0.01469994 8.65513611 0.02259827 C9.71913132 0.02401321 10.78312653 0.02542816 11.87936401 0.02688599 C15.29293069 0.03250388 18.70643286 0.04505941 22.11997986 0.05775452 C24.42792162 0.06276721 26.73586441 0.06733052 29.04380798 0.07142639 C34.71505412 0.08247912 40.38626238 0.09923465 46.05747986 0.12025452 C46.05747986 0.45025452 46.05747986 0.78025452 46.05747986 1.12025452 C30.54747986 1.12025452 15.03747986 1.12025452 -0.94252014 1.12025452 C1.72180898 11.37321915 1.72180898 11.37321915 8.61997986 17.87025452 C20.51055959 22.19410169 31.50055342 18.8086353 43.05747986 15.12025452 C43.99367799 18.27531594 44.16319216 21.08611954 44.11997986 24.37025452 C44.11095642 25.26228577 44.10193298 26.15431702 44.09263611 27.07337952 C44.08103455 27.74884827 44.06943298 28.42431702 44.05747986 29.12025452 C41.96397296 25.71830581 41.87805823 23.0675304 42.05747986 19.12025452 C41.23247986 19.33681702 40.40747986 19.55337952 39.55747986 19.77650452 C29.64420431 22.16631202 17.24743682 24.76607631 7.43247986 20.68275452 C2.45419375 17.62513755 -0.3916203 12.2220542 -2.94252014 7.12025452 C-3.06752014 4.05775452 -3.06752014 4.05775452 -2.94252014 1.12025452 C-1.94252014 0.12025452 -1.94252014 0.12025452 0 0 Z " fill="#0E161E" transform="translate(641.9425201416016,513.8797454833984)"/>
<path d="M0 0 C0.144375 1.11375 0.28875 2.2275 0.4375 3.375 C0.78372035 6.82142047 0.78372035 6.82142047 2 9 C1.34 9 0.68 9 0 9 C0.37125 10.093125 0.7425 11.18625 1.125 12.3125 C1.41375 13.529375 1.7025 14.74625 2 16 C1.34 16.99 0.68 17.98 0 19 C-2.73650872 19.32564759 -5.25828135 19.46499301 -8 19.4765625 C-8.79148437 19.49214203 -9.58296875 19.50772156 -10.3984375 19.52377319 C-12.93228137 19.57138893 -15.46584902 19.59908255 -18 19.625 C-20.53395556 19.6614736 -23.06775404 19.7020958 -25.6015625 19.74765015 C-27.1795944 19.77489706 -28.75774118 19.79623958 -30.3359375 19.81118774 C-34.29745627 19.78532758 -34.29745627 19.78532758 -38 21 C-38 30.24 -38 39.48 -38 49 C-38.66 49 -39.32 49 -40 49 C-40 38.77 -40 28.54 -40 18 C-36.77396455 16.38698227 -33.25289962 16.87946401 -29.7109375 16.90234375 C-28.48330185 16.90446617 -28.48330185 16.90446617 -27.23086548 16.90663147 C-24.61220675 16.9122371 -21.99363296 16.92479052 -19.375 16.9375 C-17.60156373 16.94251428 -15.82812613 16.94707731 -14.0546875 16.95117188 C-9.70309218 16.96220836 -5.3515605 16.97947675 -1 17 C-1 12.05 -1 7.1 -1 2 C-1.66 1.67 -2.32 1.34 -3 1 C-1 0 -1 0 0 0 Z " fill="#101B25" transform="translate(110,483)"/>
<path d="M0 0 C2.86688248 0.09096556 5.70300515 0.23767988 8.5625 0.4375 C9.36880859 0.48970703 10.17511719 0.54191406 11.00585938 0.59570312 C13.00421738 0.72577376 15.00215386 0.86229056 17 1 C17 1.66 17 2.32 17 3 C11.72 3 6.44 3 1 3 C1.02094727 4.46751709 1.04189453 5.93503418 1.06347656 7.44702148 C1.13618062 12.92055404 1.1819105 18.39404435 1.21972656 23.86791992 C1.23977282 26.23159985 1.26701719 28.59523061 1.30175781 30.95874023 C1.35058271 34.36714857 1.37303948 37.77489803 1.390625 41.18359375 C1.41127014 42.23083115 1.43191528 43.27806854 1.45318604 44.35704041 C1.45514476 50.84253132 0.73690927 56.51914254 -3 62 C-5.75 63.0625 -5.75 63.0625 -8 63 C-6.73046875 61.53515625 -5.4609375 60.0703125 -4.19140625 58.60546875 C-1.88080506 55.49183894 -1.8607391 52.54344856 -1.81054688 48.81005859 C-1.79382935 47.75241302 -1.77711182 46.69476746 -1.7598877 45.60507202 C-1.74631226 44.46438263 -1.73273682 43.32369324 -1.71875 42.1484375 C-1.70034058 40.97866364 -1.68193115 39.80888977 -1.66296387 38.60366821 C-1.58412822 33.58743603 -1.51635728 28.57106844 -1.44775391 23.5546875 C-1.39618313 19.89836662 -1.33888452 16.24216699 -1.28125 12.5859375 C-1.26767456 11.44119965 -1.25409912 10.29646179 -1.2401123 9.11703491 C-1.22339478 8.06569366 -1.20667725 7.01435242 -1.18945312 5.93115234 C-1.17692505 5.00088226 -1.16439697 4.07061218 -1.15148926 3.1121521 C-1 1 -1 1 0 0 Z " fill="#131E29" transform="translate(263,470)"/>
<path d="M0 0 C3.87856292 1.76916905 5.45923101 3.22489778 7.875 6.6875 C9 10 9 10 9 19 C-1.23 19 -11.46 19 -22 19 C-22 11.06012099 -21.0607937 7.0607937 -15.5 1.5 C-10.31619042 -0.72163268 -5.55476603 -0.74673124 0 0 Z M-17.375 6.1875 C-19.55626523 9.66481545 -19.55626523 9.66481545 -21 17 C-11.43 17 -1.86 17 8 17 C6.67593869 8.65873756 6.67593869 8.65873756 2 3 C-5.2826013 -0.11701081 -11.55876924 0.83044536 -17.375 6.1875 Z " fill="#0D151F" transform="translate(662,484)"/>
<path d="M0 0 C3.56079563 2.93241993 5.29309373 6.2699176 6.125 10.75 C6.19331987 13.1657906 6.20987642 15.58334713 6.1875 18 C6.17847656 19.26328125 6.16945313 20.5265625 6.16015625 21.828125 C6.14855469 22.79234375 6.13695312 23.7565625 6.125 24.75 C5.795 24.75 5.465 24.75 5.125 24.75 C5.01542969 23.73679687 4.90585937 22.72359375 4.79296875 21.6796875 C4.63340107 20.32805539 4.47321167 18.97649657 4.3125 17.625 C4.24224609 16.95984375 4.17199219 16.2946875 4.09960938 15.609375 C3.54800644 11.10829506 2.48378294 7.62555535 0.125 3.75 C-4.22270215 0.78565762 -7.67419588 0.12231674 -12.875 0.75 C-17.03408175 2.10822411 -19.96362074 3.39834839 -22.45532227 7.09375 C-24.47854976 12.30438713 -24.35469543 17.16583029 -24.38671875 22.7109375 C-24.40466995 23.85664215 -24.42262115 25.0023468 -24.44111633 26.18276978 C-24.49515437 29.83014279 -24.52909518 33.4773854 -24.5625 37.125 C-24.5956787 39.6028827 -24.63016887 42.08074821 -24.66601562 44.55859375 C-24.75087728 50.62227889 -24.81925486 56.68598104 -24.875 62.75 C-25.205 62.75 -25.535 62.75 -25.875 62.75 C-26.14593219 55.51011224 -26.37545296 48.26973945 -26.5769043 41.02758789 C-26.65016397 38.56667735 -26.73272575 36.10602473 -26.82495117 33.64575195 C-26.95626854 30.09874785 -27.0535427 26.55214664 -27.14453125 23.00390625 C-27.19221146 21.9129213 -27.23989166 20.82193634 -27.28901672 19.69789124 C-27.42915526 12.55027244 -26.28354704 7.49309971 -21.875 1.75 C-15.30268615 -3.23364196 -7.3218765 -3.18342456 0 0 Z " fill="#1C2B38" transform="translate(504.875,487.25)"/>
<path d="M0 0 C1.98 0.33 3.96 0.66 6 1 C7.29132785 4.87398355 6.41113572 7.81988786 5.5625 11.6875 C5.41490234 12.38939453 5.26730469 13.09128906 5.11523438 13.81445312 C4.7504068 15.54444194 4.37611311 17.27242963 4 19 C3.32195313 18.7834375 2.64390625 18.566875 1.9453125 18.34375 C-5.98530395 15.9711556 -13.54705084 14.12802589 -21.375 17.6875 C-27.46039519 21.22608996 -29.57999785 25.68484277 -31.40625 32.28515625 C-32.3267246 36.49390523 -32.73498808 40.70497925 -33 45 C-33.33 45 -33.66 45 -34 45 C-34.76524982 28.67467048 -34.76524982 28.67467048 -30 22 C-29.443125 21.0925 -28.88625 20.185 -28.3125 19.25 C-23.71803735 14.77971202 -18.38771357 12.77424564 -12 12.625 C-7.16455871 12.8220556 -2.6777098 13.79284908 2 15 C2.66 10.71 3.32 6.42 4 2 C2.68 1.34 1.36 0.68 0 0 Z " fill="#0F161F" transform="translate(750,472)"/>
<path d="M0 0 C-1.79244141 0.14695312 -1.79244141 0.14695312 -3.62109375 0.296875 C-15.79437924 1.37584334 -15.79437924 1.37584334 -27 6 C-27.69351562 6.28875 -28.38703125 6.5775 -29.1015625 6.875 C-31.50203386 8.29750155 -31.92220633 9.44922166 -33 12 C-33.7115625 13.28390625 -33.7115625 13.28390625 -34.4375 14.59375 C-41.37099807 27.49005641 -41.28543824 39.728088 -41 54 C-42.68131083 51.05603643 -43.25558435 48.93197179 -43.265625 45.55078125 C-43.26820313 44.70193359 -43.27078125 43.85308594 -43.2734375 42.97851562 C-43.26570313 42.09873047 -43.25796875 41.21894531 -43.25 40.3125 C-43.25773437 39.45205078 -43.26546875 38.59160156 -43.2734375 37.70507812 C-43.23957619 26.47158833 -40.66495943 16.57670182 -33.1796875 7.88671875 C-25.60207197 0.72326439 -9.68344162 -6.45562774 0 0 Z " fill="#0F1921" transform="translate(355,456)"/>
<path d="M0 0 C0.66 0.33 1.32 0.66 2 1 C1.67 10.24 1.34 19.48 1 29 C4.96 28.505 4.96 28.505 9 28 C12.93754734 27.80753794 16.87061757 27.81499961 20.8125 27.8125 C21.84826172 27.80025391 22.88402344 27.78800781 23.95117188 27.77539062 C25.43907227 27.77249023 25.43907227 27.77249023 26.95703125 27.76953125 C28.30244995 27.76336792 28.30244995 27.76336792 29.67504883 27.75708008 C32 28 32 28 35 30 C33.2670702 31.7329298 31.03785664 31.12820046 28.72851562 31.13894653 C27.99310547 31.1369223 27.25769531 31.13489807 26.5 31.1328125 C25.74912109 31.13376923 24.99824219 31.13472595 24.22460938 31.13571167 C22.63411373 31.13639338 21.04361533 31.13453972 19.453125 31.13037109 C17.01035345 31.12502267 14.56776579 31.13031634 12.125 31.13671875 C10.58333293 31.13605797 9.04166597 31.1347768 7.5 31.1328125 C6.76458984 31.13483673 6.02917969 31.13686096 5.27148438 31.13894653 C0.11495161 31.11495161 0.11495161 31.11495161 -1 30 C-1.10003289 27.86646826 -1.13081048 25.72962458 -1.1328125 23.59375 C-1.13410156 22.29308594 -1.13539062 20.99242187 -1.13671875 19.65234375 C-1.13462402 18.97155762 -1.1325293 18.29077148 -1.13037109 17.58935547 C-1.1250224 15.50871485 -1.1303168 13.42829011 -1.13671875 11.34765625 C-1.13542969 10.04699219 -1.13414063 8.74632812 -1.1328125 7.40625 C-1.13168457 6.20291016 -1.13055664 4.99957031 -1.12939453 3.75976562 C-1 1 -1 1 0 0 Z " fill="#0E1B26" transform="translate(71,455)"/>
<path d="M0 0 C0.33 0 0.66 0 1 0 C2.02366148 10.97346455 2.15508797 21.87830767 2.13037109 32.890625 C2.12493142 35.78650967 2.13038949 38.68224455 2.13671875 41.578125 C2.13605925 43.42187534 2.13478077 45.26562559 2.1328125 47.109375 C2.13483673 47.9738324 2.13686096 48.83828979 2.13894653 49.72894287 C2.11500997 55.76998005 2.11500997 55.76998005 1 58 C-2.01499383 59.06570252 -4.8858433 59.13458267 -8.0625 59.125 C-9.34833984 59.12886719 -9.34833984 59.12886719 -10.66015625 59.1328125 C-13 59 -13 59 -16 58 C-17.1875 55.4375 -17.1875 55.4375 -18 53 C-19.17755859 53.01740234 -19.17755859 53.01740234 -20.37890625 53.03515625 C-26.03719775 53.08375507 -31.42878878 53.01294749 -37 52 C-37 51.67 -37 51.34 -37 51 C-29.74 51 -22.48 51 -15 51 C-15 52.65 -15 54.3 -15 56 C-10.05 56 -5.1 56 0 56 C0 37.52 0 19.04 0 0 Z " fill="#B11619" transform="translate(971,517)"/>
<path d="M0 0 C0.80515045 0.00045822 1.6103009 0.00091644 2.43984985 0.00138855 C4.1428576 0.00440862 5.84586263 0.0122876 7.54882812 0.0246582 C10.14723578 0.04285094 12.74528545 0.04516822 15.34375 0.04492188 C17.00000306 0.04983993 18.65625372 0.0556695 20.3125 0.0625 C21.47366837 0.06416924 21.47366837 0.06416924 22.65829468 0.06587219 C26.48876033 0.09931624 30.06488858 0.30519382 33.7890625 1.23046875 C33.7890625 2.22046875 33.7890625 3.21046875 33.7890625 4.23046875 C33.1290625 4.23046875 32.4690625 4.23046875 31.7890625 4.23046875 C31.4590625 5.22046875 31.1290625 6.21046875 30.7890625 7.23046875 C30.7890625 6.24046875 30.7890625 5.25046875 30.7890625 4.23046875 C30.08523437 4.24094238 29.38140625 4.25141602 28.65625 4.26220703 C15.20592325 4.43560387 2.08059043 4.47918647 -11.2109375 2.23046875 C-7.41777073 -0.2983091 -4.39116683 -0.04054792 0 0 Z " fill="#172532" transform="translate(83.2109375,531.76953125)"/>
<path d="M0 0 C0.99 0.33 1.98 0.66 3 1 C3.8599867 6.65134116 4.4618629 12.30948637 5 18 C3.75264433 18.6509259 2.50198168 19.29551669 1.25 19.9375 C0.55390625 20.29714844 -0.1421875 20.65679688 -0.859375 21.02734375 C-5.37747267 23.08027499 -9.29059813 23.10842039 -14.25 23.0625 C-15.51328125 23.05347656 -16.7765625 23.04445313 -18.078125 23.03515625 C-19.04234375 23.02355469 -20.0065625 23.01195312 -21 23 C-21 22.67 -21 22.34 -21 22 C-20.02160156 21.87882813 -19.04320312 21.75765625 -18.03515625 21.6328125 C-10.9373169 20.73279307 -3.95711683 19.70876554 3 18 C1.515 11.07 1.515 11.07 0 4 C-1.36125 4.474375 -2.7225 4.94875 -4.125 5.4375 C-10.95713539 7.69008585 -17.79349544 8.76471901 -25 8 C-25.66 7.34 -26.32 6.68 -27 6 C-25.20755859 5.85304688 -25.20755859 5.85304688 -23.37890625 5.703125 C-14.76745637 4.91878557 -7.79500616 3.96588033 0 0 Z " fill="#111B25" transform="translate(365,528)"/>
<path d="M0 0 C0.33 0 0.66 0 1 0 C1.14695312 1.16015625 1.29390625 2.3203125 1.4453125 3.515625 C2.97344952 14.54375937 4.78186118 25.57390848 13.375 33.5 C14.5580935 34.36879437 15.76659053 35.20425195 17 36 C17.82177734 36.58007812 17.82177734 36.58007812 18.66015625 37.171875 C23.92730269 40.3668913 29.60988358 40.78893741 35.62866211 41.31738281 C37.42580844 41.48392364 39.21470743 41.73504492 41 42 C41.33 42.66 41.66 43.32 42 44 C30.99973073 44.70214485 20.55102401 43.09990731 11.8125 35.890625 C3.70335632 27.43194926 -0.14113524 17.98232629 -0.1875 6.4375 C-0.13980637 4.29128653 -0.08238886 2.14516177 0 0 Z " fill="#101821" transform="translate(621,508)"/>
<path d="M0 0 C-1 2 -1 2 -3.1875 2.859375 C-4.5796875 3.30023438 -4.5796875 3.30023438 -6 3.75 C-19.00228022 8.33111427 -26.63429386 16.4185509 -32.64135742 28.62353516 C-35.12004817 33.92103103 -36.77701819 39.29275157 -38 45 C-38.33 45 -38.66 45 -39 45 C-39.49273347 33.26398457 -34.62627916 23.60732964 -27 15 C-26.401875 14.13375 -25.80375 13.2675 -25.1875 12.375 C-18.98800834 5.64412334 -9.53860959 -0.89424465 0 0 Z " fill="#0F1821" transform="translate(332,440)"/>
<path d="M0 0 C0.33 0 0.66 0 1 0 C1.17015625 1.30195313 1.3403125 2.60390625 1.515625 3.9453125 C1.75961188 5.67198891 2.00444854 7.39854539 2.25 9.125 C2.35957031 9.9809375 2.46914062 10.836875 2.58203125 11.71875 C3.5600067 18.41016095 5.42894978 22.78770098 10.6875 27.3125 C15.4630252 29.74531472 19.96888523 30.78409045 25.25 29.41796875 C27.19802589 28.69103997 29.10267601 27.85052455 31 27 C31.99 26.67 32.98 26.34 34 26 C35.22520264 22.99152582 35.22520264 22.99152582 36 20 C36.66 20 37.32 20 38 20 C36.55090594 25.79637623 34.22712979 28.03102434 29.2265625 31.08203125 C23.89217612 33.28129581 16.88589161 33.05559301 11.51171875 31.08984375 C5.56708958 27.60814945 2.08774547 22.5242046 0 16 C-0.13760722 13.19006055 -0.19011573 10.48998076 -0.125 7.6875 C-0.11597656 6.94693359 -0.10695312 6.20636719 -0.09765625 5.44335938 C-0.07424213 3.62876533 -0.03837615 1.81433929 0 0 Z " fill="#0E1720" transform="translate(144,504)"/>
<path d="M0 0 C0.66 0 1.32 0 2 0 C2.37125 1.155 2.7425 2.31 3.125 3.5 C7.32540123 14.69446553 16.6749477 22.53299983 27 28 C32.50550375 30.012608 38.19391884 31.21539444 44 32 C44 32.33 44 32.66 44 33 C33.28402521 33.94924974 24.81743178 31.07570077 16.1875 24.6875 C9.38234953 18.98987854 3.39027304 12.31163713 0 4 C0 2.68 0 1.36 0 0 Z " fill="#101A22" transform="translate(295,518)"/>
<path d="M0 0 C9.9 0 19.8 0 30 0 C30 4.95 30 9.9 30 15 C23 16 23 16 21 15 C21.515625 15.78375 22.03125 16.5675 22.5625 17.375 C23.036875 18.24125 23.51125 19.1075 24 20 C23.67 20.66 23.34 21.32 23 22 C18.99609375 17.60546875 18.99609375 17.60546875 18 16 C18.33 15.01 18.66 14.02 19 13 C21.97 13 24.94 13 28 13 C28 9.04 28 5.08 28 1 C18.76 1 9.52 1 0 1 C0 0.67 0 0.34 0 0 Z " fill="#B51418" transform="translate(914,494)"/>
<path d="M0 0 C0.515625 0.66 1.03125 1.32 1.5625 2 C2.366875 2.99 3.17125 3.98 4 5 C4.49757812 5.639375 4.99515625 6.27875 5.5078125 6.9375 C10.39721786 12.94123496 16.20958047 17.57106943 24 19 C26.58656673 19.22288501 29.15952778 19.41314385 31.75 19.5625 C32.44738281 19.60568359 33.14476562 19.64886719 33.86328125 19.69335938 C35.57531922 19.79889596 37.28763561 19.8998991 39 20 C39 20.66 39 21.32 39 22 C27.9169198 22.39425977 18.69473533 22.7010513 10 15 C9.36191406 14.731875 8.72382813 14.46375 8.06640625 14.1875 C5.31927135 12.60880622 4.33338593 10.78544398 2.75 8.0625 C2.22921875 7.18722656 1.7084375 6.31195312 1.171875 5.41015625 C0 3 0 3 0 0 Z " fill="#121C25" transform="translate(129,530)"/>
<path d="M0 0 C6.78099824 -0.50023758 12.50561418 -0.38329891 18 4 C23.88525026 11.01252456 24.18085945 17.87549637 24.1875 26.6875 C24.19974609 27.55439453 24.21199219 28.42128906 24.22460938 29.31445312 C24.22750977 30.55678711 24.22750977 30.55678711 24.23046875 31.82421875 C24.23457764 32.57791748 24.23868652 33.33161621 24.24291992 34.1081543 C24 36 24 36 22 38 C21.20274843 35.21700867 20.90478995 32.84184994 21.0078125 29.953125 C21.02457031 29.19 21.04132813 28.426875 21.05859375 27.640625 C21.10243751 26.0622496 21.15436044 24.48407539 21.21484375 22.90625 C21.31955524 17.23279089 20.37762517 13.17416525 18 8 C12.69803785 2.69803785 7.17680239 1.72984431 0 1 C0 0.67 0 0.34 0 0 Z " fill="#0F1923" transform="translate(160,485)"/>
<path d="M0 0 C0.66 0 1.32 0 2 0 C2 5.28 2 10.56 2 16 C-8.04201257 18.86914645 -18.44778642 19.86975594 -28 15 C-28.66 14.34 -29.32 13.68 -30 13 C-24.38330059 13.89356582 -24.38330059 13.89356582 -22.09472656 14.52905273 C-19.74479053 15.05737751 -17.64192274 15.11308925 -15.234375 15.09765625 C-13.90019531 15.09282227 -13.90019531 15.09282227 -12.5390625 15.08789062 C-11.15847656 15.07532227 -11.15847656 15.07532227 -9.75 15.0625 C-8.81414063 15.05798828 -7.87828125 15.05347656 -6.9140625 15.04882812 C-4.60934753 15.03706938 -2.30466554 15.01913468 0 15 C0 10.05 0 5.1 0 0 Z " fill="#222029" transform="translate(812,534)"/>
<path d="M0 0 C0 0.33 0 0.66 0 1 C-1.25554688 0.96519531 -2.51109375 0.93039062 -3.8046875 0.89453125 C-20.71842622 0.56169672 -31.33889501 3.48630765 -44 15 C-42.60008468 9.71143101 -39.4314031 6.91600101 -35 4 C-23.69630646 -1.64428071 -12.18656964 -4.23880683 0 0 Z " fill="#141D27" transform="translate(749,471)"/>
<path d="M0 0 C1.65 0 3.3 0 5 0 C5.90413673 3.83724172 6.10576898 7.37502274 6.0625 11.3125 C6.05347656 12.38113281 6.04445312 13.44976562 6.03515625 14.55078125 C6.02355469 15.35902344 6.01195312 16.16726563 6 17 C2.71377082 18.64311459 -0.90726651 17.99748737 -4.5078125 17.87890625 C-5.76874222 17.84348976 -5.76874222 17.84348976 -7.05514526 17.80735779 C-9.7452662 17.73066362 -12.4351034 17.64666417 -15.125 17.5625 C-16.94660061 17.50928506 -18.76821514 17.45654463 -20.58984375 17.40429688 C-25.06007618 17.27504071 -29.5300676 17.13923154 -34 17 C-34 16.67 -34 16.34 -34 16 C-21.79 16 -9.58 16 3 16 C3 11.05 3 6.1 3 1 C2.01 0.67 1.02 0.34 0 0 Z " fill="#101A23" transform="translate(109,439)"/>
<path d="M0 0 C0.33 0 0.66 0 1 0 C1 17.49 1 34.98 1 53 C-6.00927959 53.70092796 -10.40991865 54.09834689 -17 53 C-16.67 52.34 -16.34 51.68 -16 51 C-10.72 51 -5.44 51 0 51 C0 34.17 0 17.34 0 0 Z " fill="#040A0E" transform="translate(609,497)"/>
<path d="M0 0 C0.66 0 1.32 0 2 0 C0.87373984 2.44023034 -0.33251324 4.45050181 -1.9375 6.625 C-6.60391722 14.26095546 -7.47133836 22.33030916 -7.6875 31.125 C-7.72166016 32.08148437 -7.75582031 33.03796875 -7.79101562 34.0234375 C-7.87240474 36.34884073 -7.94189612 38.67391876 -8 41 C-11.47160096 37.52839904 -10.94709458 32.72621784 -11 28 C-10.13912937 17.23228482 -6.78164764 8.38782735 0 0 Z " fill="#111B25" transform="translate(383,481)"/>
<path d="M0 0 C0.66 0.33 1.32 0.66 2 1 C1.72285156 1.67546875 1.44570313 2.3509375 1.16015625 3.046875 C0.79792969 3.93890625 0.43570313 4.8309375 0.0625 5.75 C-0.29714844 6.63171875 -0.65679688 7.5134375 -1.02734375 8.421875 C-2.45888902 12.21633233 -3.12688394 15.45973981 -3.1328125 19.51953125 C-3.13410156 20.37740234 -3.13539063 21.23527344 -3.13671875 22.11914062 C-3.13285156 23.00794922 -3.12898437 23.89675781 -3.125 24.8125 C-3.12886719 25.68970703 -3.13273438 26.56691406 -3.13671875 27.47070312 C-3.12931333 32.4212291 -2.83883185 37.12012902 -2 42 C-4 41 -4 41 -5.1015625 38.046875 C-6.28892163 33.47006045 -6.38301917 28.95769857 -6.375 24.25 C-6.37483887 23.36836182 -6.37467773 22.48672363 -6.37451172 21.57836914 C-6.2318804 13.42210955 -4.55220636 6.82830954 0 0 Z " fill="#101922" transform="translate(703,487)"/>
<path d="M0 0 C8.31531552 0.69294296 14.58960331 3.75807686 20.32421875 9.875 C24.96603748 15.76112911 28.45991477 21.3609278 28 29 C25.7751457 26.7751457 25.40301445 25.44785089 24.4375 22.5 C21.4714944 14.89203024 16.09609169 8.25652416 8.75 4.5 C7.51052084 3.97446084 6.26102179 3.4715125 5 3 C4.01 2.5875 3.02 2.175 2 1.75 C1.34 1.5025 0.68 1.255 0 1 C0 0.67 0 0.34 0 0 Z " fill="#111D27" transform="translate(421,471)"/>
<path d="M0 0 C0.66 0 1.32 0 2 0 C0.78991883 6.17141395 -0.84280578 8.38996404 -6 12 C-10.75165724 14.85498733 -15.61236395 14.50826755 -21 14 C-25.28910502 12.44032545 -27.96641459 10.38361449 -31 7 C-30.67 6.34 -30.34 5.68 -30 5 C-28.53515625 6.26953125 -27.0703125 7.5390625 -25.60546875 8.80859375 C-21.17150678 12.09900349 -15.23644601 11.52514502 -10 11 C-4.543634 8.51983364 -2.58457423 5.16914846 0 0 Z " fill="#0E1821" transform="translate(428,522)"/>
<path d="M0 0 C6.57706319 0.27987503 11.05330977 2.68288852 16 7 C22.90491349 15.22713096 24.3369405 22.47996877 24 33 C23.67 33 23.34 33 23 33 C22.91363281 32.24976563 22.82726562 31.49953125 22.73828125 30.7265625 C21.40939694 21.04643273 18.96452868 12.45394944 10.98046875 6.25 C7.51106042 4.06023537 3.82040454 2.4727183 0 1 C0 0.67 0 0.34 0 0 Z " fill="#0C141B" transform="translate(664,471)"/>
<path d="M0 0 C0.33 0 0.66 0 1 0 C1.33 12.54 1.66 25.08 2 38 C-5.11868525 38.79096503 -9.30360667 38.95662762 -16 38 C-16 37.34 -16 36.68 -16 36 C-10.72 36 -5.44 36 0 36 C0 24.12 0 12.24 0 0 Z " fill="#0B161F" transform="translate(559,512)"/>
<path d="M0 0 C-0.53625 0.2475 -1.0725 0.495 -1.625 0.75 C-2.40875 1.1625 -3.1925 1.575 -4 2 C-5.010625 2.515625 -6.02125 3.03125 -7.0625 3.5625 C-11.01560463 6.40613398 -11.01560463 6.40613398 -13 15 C0.86 15.495 0.86 15.495 15 16 C15 16.33 15 16.66 15 17 C5.1 17.33 -4.8 17.66 -15 18 C-15 11.26589279 -14.70950701 8.27320689 -11 3 C-7.15201452 -0.35675329 -4.948595 -1.74656294 0 0 Z " fill="#16212D" transform="translate(655,485)"/>
<path d="M0 0 C0.53414112 1.89212702 1.05178329 3.78891636 1.5625 5.6875 C1.85253906 6.74324219 2.14257812 7.79898438 2.44140625 8.88671875 C3.00998027 12.05562431 3.04573808 13.96949374 2 17 C-3.96334358 20.84304364 -10.09954056 20.3059317 -17 20 C-17 19.67 -17 19.34 -17 19 C-16.19175781 18.87882813 -15.38351562 18.75765625 -14.55078125 18.6328125 C-13.48214844 18.46523438 -12.41351562 18.29765625 -11.3125 18.125 C-10.25675781 17.96257813 -9.20101562 17.80015625 -8.11328125 17.6328125 C-4.61207772 17.01787022 -4.61207772 17.01787022 0 15 C-0.495 8.565 -0.495 8.565 -1 2 C-2.32 2.33 -3.64 2.66 -5 3 C-5 2.34 -5 1.68 -5 1 C-3 0 -3 0 0 0 Z " fill="#191F28" transform="translate(755,531)"/>
<path d="M0 0 C1.94938535 1.87140993 3.80007923 3.74598926 5.47265625 5.87109375 C12.5657369 14.74163668 20.9554652 17.59318663 32 19 C32 19.33 32 19.66 32 20 C21.47994166 20.90000499 14.61847756 18.21821487 6.5625 11.5 C3.7863739 8.92016565 1.55921661 6.50823737 0 3 C0 2.01 0 1.02 0 0 Z " fill="#121921" transform="translate(702,531)"/>
<path d="M0 0 C4.59616587 2.06035022 6.54210662 4.01637719 8.6875 8.625 C10.97760948 15.79351978 10.23032621 23.56984702 10 31 C9.34 31.33 8.68 31.66 8 32 C7.97421875 30.81664062 7.9484375 29.63328125 7.921875 28.4140625 C7.57808087 17.65171235 6.86880223 8.75281656 0 0 Z " fill="#111B24" transform="translate(422,489)"/>
<path d="M0 0 C0.66 0 1.32 0 2 0 C2.35191406 0.79664063 2.70382812 1.59328125 3.06640625 2.4140625 C7.03101551 10.92296278 10.53541195 16.43662737 19.4375 19.875 C20.613125 20.24625 21.78875 20.6175 23 21 C23 21.66 23 22.32 23 23 C16.89730362 22.68704121 12.52276368 19.89977118 8 16 C5.68511996 13.15923427 3.77556121 10.20183169 2 7 C1.61714844 6.31164062 1.23429687 5.62328125 0.83984375 4.9140625 C0 3 0 3 0 0 Z " fill="#101A23" transform="translate(314,511)"/>
<path d="M0 0 C2.22656341 2.10903221 3.95132873 4.29032569 5.6875 6.8125 C10.83441993 13.72589368 16.88012496 17.39004017 25 20 C25 20.33 25 20.66 25 21 C16.86509156 20.70418515 11.48485887 17.70632654 5.91015625 11.77734375 C2.72971555 7.88146649 0.71141985 5.0599737 0 0 Z " fill="#131D26" transform="translate(377,529)"/>
<path d="M0 0 C1.98 0.99 1.98 0.99 4 2 C3.34 2 2.68 2 2 2 C2 11.24 2 20.48 2 30 C1.34 30 0.68 30 0 30 C0 20.1 0 10.2 0 0 Z " fill="#09151E" transform="translate(70,502)"/>
<path d="M0 0 C0.66 0 1.32 0 2 0 C2 4.29 2 8.58 2 13 C11.9 13 21.8 13 32 13 C32 13.33 32 13.66 32 14 C27.60364953 14.16726689 23.20712239 14.32786093 18.81030273 14.48217773 C17.31349062 14.53566434 15.81674337 14.5909987 14.32006836 14.64819336 C12.17315668 14.72991956 10.02610207 14.8050746 7.87890625 14.87890625 C5.93866577 14.94960327 5.93866577 14.94960327 3.95922852 15.02172852 C1 15 1 15 0 14 C-0.07271741 11.64686445 -0.08370868 9.29166332 -0.0625 6.9375 C-0.05347656 5.64714844 -0.04445313 4.35679687 -0.03515625 3.02734375 C-0.02355469 2.02832031 -0.01195312 1.02929688 0 0 Z " fill="#BD1C20" transform="translate(912,480)"/>
<path d="M0 0 C2.97 0.495 2.97 0.495 6 1 C7.29132785 4.87398355 6.41113572 7.81988786 5.5625 11.6875 C5.41490234 12.38939453 5.26730469 13.09128906 5.11523438 13.81445312 C4.7504068 15.54444194 4.37611311 17.27242963 4 19 C0.37 18.01 -3.26 17.02 -7 16 C-3 14 -3 14 2 15 C2.66 10.71 3.32 6.42 4 2 C2.68 1.34 1.36 0.68 0 0 Z " fill="#141D25" transform="translate(750,472)"/>
<path d="M0 0 C1.18613892 0.07069702 1.18613892 0.07069702 2.39624023 0.14282227 C3.67724609 0.21533203 3.67724609 0.21533203 4.98413086 0.28930664 C5.88196289 0.34538086 6.77979492 0.40145508 7.70483398 0.45922852 C8.6065332 0.51143555 9.50823242 0.56364258 10.43725586 0.61743164 C12.67259948 0.74753101 14.90754288 0.88250788 17.14233398 1.02172852 C17.14233398 3.33172852 17.14233398 5.64172852 17.14233398 8.02172852 C16.81233398 8.02172852 16.48233398 8.02172852 16.14233398 8.02172852 C16.14233398 6.37172852 16.14233398 4.72172852 16.14233398 3.02172852 C8.22233398 3.51672852 8.22233398 3.51672852 0.14233398 4.02172852 C-0.18766602 6.33172852 -0.51766602 8.64172852 -0.85766602 11.02172852 C-1.18766602 11.02172852 -1.51766602 11.02172852 -1.85766602 11.02172852 C-2.05173079 9.37665634 -2.23774537 7.73063257 -2.42016602 6.08422852 C-2.52458008 5.16770508 -2.62899414 4.25118164 -2.73657227 3.30688477 C-2.7765332 2.5527832 -2.81649414 1.79868164 -2.85766602 1.02172852 C-1.85766602 0.02172852 -1.85766602 0.02172852 0 0 Z " fill="#0C161F" transform="translate(215.857666015625,469.978271484375)"/>
<path d="M0 0 C0.33 0 0.66 0 1 0 C1.19331179 6.37171718 1.37078672 12.74373246 1.53710938 19.11621094 C1.59560931 21.28525847 1.65777217 23.45421036 1.72363281 25.62304688 C1.81751851 28.73549998 1.89834624 31.8480562 1.9765625 34.9609375 C2.00875885 35.934935 2.0409552 36.9089325 2.0741272 37.91244507 C2.09429901 38.81322784 2.11447083 39.71401062 2.13525391 40.64208984 C2.15746002 41.43706879 2.17966614 42.23204773 2.20254517 43.05111694 C2 45 2 45 0 47 C-1.31074078 42.10568512 -1.03073607 37.33873158 -0.87890625 32.32421875 C-0.85529526 31.3990596 -0.83168427 30.47390045 -0.80735779 29.52070618 C-0.73100288 26.576137 -0.64685775 23.6318497 -0.5625 20.6875 C-0.5092511 18.68686259 -0.4565109 16.68621156 -0.40429688 14.68554688 C-0.27542597 9.79018729 -0.13956966 4.89506576 0 0 Z " fill="#192430" transform="translate(591,504)"/>
<path d="M0 0 C0.33 0 0.66 0 1 0 C1 4.62 1 9.24 1 14 C-8.57 13.67 -18.14 13.34 -28 13 C-28 12.67 -28 12.34 -28 12 C-19.09 12 -10.18 12 -1 12 C-1 8.37 -1 4.74 -1 1 C-0.67 0.67 -0.34 0.34 0 0 Z " fill="#BB1B1F" transform="translate(898,481)"/>
<path d="M0 0 C2 2 2 2 2 7 C6.95 7 11.9 7 17 7 C17.33 7.66 17.66 8.32 18 9 C12.06 9 6.12 9 0 9 C0 6.03 0 3.06 0 0 Z " fill="#0B151E" transform="translate(183,541)"/>
<path d="M0 0 C0.66 0 1.32 0 2 0 C1.938125 0.87398438 1.87625 1.74796875 1.8125 2.6484375 C2.02731909 6.48832877 3.01695001 8.36582062 5 11.625 C8 16.58333333 8 16.58333333 8 21 C5.03 20.67 2.06 20.34 -1 20 C-1 19.67 -1 19.34 -1 19 C2.465 18.505 2.465 18.505 6 18 C5.59007812 17.33613281 5.18015625 16.67226563 4.7578125 15.98828125 C3.94957031 14.66376953 3.94957031 14.66376953 3.125 13.3125 C2.59132813 12.44238281 2.05765625 11.57226562 1.5078125 10.67578125 C0.06866501 8.12185371 -1.18652069 5.81912659 -2 3 C-1.34 2.01 -0.68 1.02 0 0 Z " fill="#AF1115" transform="translate(921,510)"/>
<path d="M0 0 C0.66 0 1.32 0 2 0 C2.09796875 1.00160156 2.1959375 2.00320313 2.296875 3.03515625 C3.38860204 13.10686892 3.38860204 13.10686892 8 22 C8.66 22.99 9.32 23.98 10 25 C8.16796875 24.78515625 8.16796875 24.78515625 6 24 C0.66440978 16.62221621 -0.22182053 8.87282118 0 0 Z " fill="#151A22" transform="translate(774,522)"/>
<path d="M0 0 C0.33 0 0.66 0 1 0 C1 7.92 1 15.84 1 24 C0.34 23.67 -0.32 23.34 -1 23 C-2.256955 15.65501079 -2.22168201 8.33009208 -1 1 C-0.67 0.67 -0.34 0.34 0 0 Z " fill="#0E1720" transform="translate(126,499)"/>
<path d="M0 0 C-2.43031167 2.43031167 -4.93480985 3.47457576 -8.02734375 4.90234375 C-10.06944907 5.92063509 -10.06944907 5.92063509 -11.62890625 7.62890625 C-12.08136719 8.08136719 -12.53382813 8.53382813 -13 9 C-13.66 9 -14.32 9 -15 9 C-15.268125 9.598125 -15.53625 10.19625 -15.8125 10.8125 C-16.98493467 12.97224808 -18.19369282 14.35790256 -20 16 C-19.88178782 12.09899815 -18.48622663 10.14803503 -15.875 7.4375 C-11.30975193 3.15290242 -6.62423979 -0.80293816 0 0 Z " fill="#121D27" transform="translate(152,471)"/>
<path d="M0 0 C0.33 0 0.66 0 1 0 C1 7.26 1 14.52 1 22 C-2.42940238 18.57059762 -1.85548566 13.67472465 -2 9 C-1.61435726 1.61435726 -1.61435726 1.61435726 0 0 Z " fill="#0C151E" transform="translate(374,500)"/>
<path d="M0 0 C0.99 0.33 1.98 0.66 3 1 C2.60167969 1.556875 2.20335937 2.11375 1.79296875 2.6875 C-1.66267556 7.66497307 -4.1152527 12.24104992 -6 18 C-6.33 18 -6.66 18 -7 18 C-7.43770996 12.79437801 -6.23525651 10.02094796 -3.5 5.625 C-2.8503125 4.56539063 -2.200625 3.50578125 -1.53125 2.4140625 C-1.0259375 1.61742187 -0.520625 0.82078125 0 0 Z " fill="#121B25" transform="translate(630,480)"/>
<path d="M0 0 C-1.39175995 2.78351989 -2.92687852 2.88549451 -5.8125 3.9375 C-9.37673202 5.23789189 -11.99200003 6.70974405 -15 9 C-15.66 9 -16.32 9 -17 9 C-15.70431519 5.11294557 -14.29516728 4.73200902 -10.75 2.8125 C-9.31914062 2.01779297 -9.31914062 2.01779297 -7.859375 1.20703125 C-4.95859243 -0.01747942 -3.10587736 -0.25504467 0 0 Z " fill="#0E1921" transform="translate(403,471)"/>
<path d="M0 0 C0 0.33 0 0.66 0 1 C-6.37358711 1.96205088 -12.55929529 2.10655578 -19 2 C-14.31546743 -2.68453257 -6.03038577 -0.90734971 0 0 Z " fill="#141E29" transform="translate(352,438)"/>
<path d="M0 0 C4.95 0 9.9 0 15 0 C15 0.66 15 1.32 15 2 C9.31302429 2.91397824 4.68697571 2.91397824 -1 2 C-0.67 1.34 -0.34 0.68 0 0 Z " fill="#0D161E" transform="translate(593,548)"/>
<path d="M0 0 C0.66 0 1.32 0 2 0 C3.34919532 1.65385233 4.68133728 3.321702 6 5 C8.90092502 6.93395001 9.89674737 7.30131941 13.1875 7.625 C14.445625 7.74875 15.70375 7.8725 17 8 C17 8.33 17 8.66 17 9 C7.33333333 9.56862745 7.33333333 9.56862745 3 6 C0 2.5862069 0 2.5862069 0 0 Z " fill="#0C141D" transform="translate(234,527)"/>
<path d="M0 0 C0.66 0 1.32 0 2 0 C0.75749216 4.97003138 -0.7002109 7.20013733 -5 10 C-7.625 11.375 -7.625 11.375 -10 12 C-10.99 11.34 -11.98 10.68 -13 10 C-11.72942818 9.52014033 -10.45853152 9.0411407 -9.1875 8.5625 C-8.47980469 8.29566406 -7.77210938 8.02882813 -7.04296875 7.75390625 C-5.37327604 7.13774814 -3.68842296 6.56280765 -2 6 C-0.77479736 2.99152582 -0.77479736 2.99152582 0 0 Z " fill="#121D27" transform="translate(180,524)"/>
<path d="M0 0 C6.67353409 0.28398017 10.71077185 3.07805532 16 7 C13 8 13 8 11.1328125 7.07421875 C10.13894531 6.38779297 10.13894531 6.38779297 9.125 5.6875 C6.1608754 3.71870876 3.38631853 2.164047 0 1 C0 0.67 0 0.34 0 0 Z " fill="#121B25" transform="translate(664,471)"/>
<path d="M0 0 C0.9075 0.78375 1.815 1.5675 2.75 2.375 C7.63922194 5.93354711 13.12177189 6.35329839 19 7 C19 7.33 19 7.66 19 8 C8.69978858 8.91331924 8.69978858 8.91331924 4.64453125 6.734375 C2.88734756 5.24167463 1.36645967 3.8572304 0 2 C0 1.34 0 0.68 0 0 Z " fill="#17242E" transform="translate(397,527)"/>
<path d="M0 0 C5.7941464 0.35474366 9.78795706 1.88314447 14 6 C14.33 6.99 14.66 7.98 15 9 C12.49914724 7.84576027 10.3499173 6.5573905 8.0625 5 C5.39105639 3.25538377 2.99276699 2.0562707 0 1 C0 0.67 0 0.34 0 0 Z " fill="#121E2A" transform="translate(167,471)"/>
<path d="M0 0 C4 4 8 8 12 12 C9.18292629 11.91714489 7.46556687 11.42324261 5.3671875 9.515625 C2.6353013 6.42740582 0.76484106 4.1246786 0 0 Z " fill="#0E171F" transform="translate(718,522)"/>
<path d="M0 0 C2.0625 0.4375 2.0625 0.4375 4 1 C3.21625 1.226875 2.4325 1.45375 1.625 1.6875 C-1.67656185 3.33828093 -1.81621625 4.61776073 -3 8 C-3.99 8.66 -4.98 9.32 -6 10 C-6 6 -6 6 -3.5625 3.3125 C-2.716875 2.549375 -1.87125 1.78625 -1 1 C-0.67 0.67 -0.34 0.34 0 0 Z " fill="#182533" transform="translate(637,474)"/>
<path d="M0 0 C0.33 0 0.66 0 1 0 C1.33 4.95 1.66 9.9 2 15 C1.01 15.495 1.01 15.495 0 16 C-1.30267176 10.49983036 -0.71033431 5.52967941 0 0 Z " fill="#0C141D" transform="translate(775,488)"/>
<path d="M0 0 C-1 2 -1 2 -3.28515625 2.8515625 C-4.20167969 3.10679687 -5.11820312 3.36203125 -6.0625 3.625 C-7.44115234 4.01558594 -7.44115234 4.01558594 -8.84765625 4.4140625 C-9.55792969 4.60742188 -10.26820313 4.80078125 -11 5 C-11.66 4.34 -12.32 3.68 -13 3 C-4.57142857 -0.42857143 -4.57142857 -0.42857143 0 0 Z " fill="#131F2B" transform="translate(332,440)"/>
<path d="M0 0 C0.80824219 0.10183594 1.61648437 0.20367187 2.44921875 0.30859375 C3.06410156 0.39238281 3.67898437 0.47617187 4.3125 0.5625 C4.3125 0.8925 4.3125 1.2225 4.3125 1.5625 C2.37552033 1.89884376 0.43789514 2.23147165 -1.5 2.5625 C-3.11841797 2.8409375 -3.11841797 2.8409375 -4.76953125 3.125 C-7.6875 3.5625 -7.6875 3.5625 -10.6875 3.5625 C-7.34927415 -0.09365212 -4.82833427 -0.62978273 0 0 Z " fill="#1B2937" transform="translate(163.6875,485.4375)"/>
<path d="M0 0 C1 3 1 3 0.22265625 4.82421875 C-0.8515625 6.54947917 -1.92578125 8.27473958 -3 10 C-4.32 9.67 -5.64 9.34 -7 9 C-6.21625 8.2575 -5.4325 7.515 -4.625 6.75 C-2.43495469 4.45566682 -1.17268614 2.87841142 0 0 Z " fill="#111A24" transform="translate(262,523)"/>
<path d="M0 0 C0.66 0 1.32 0 2 0 C1.979375 0.886875 1.95875 1.77375 1.9375 2.6875 C1.99286219 5.62169631 2.3305734 8.15493696 3 11 C0.28676594 8.6567524 -1.0465616 6.46704871 -2 3 C-1.34 2.01 -0.68 1.02 0 0 Z " fill="#BA171B" transform="translate(921,510)"/>
<path d="M0 0 C0.33 0 0.66 0 1 0 C2.20568053 4.67201205 2.09382426 9.21496292 2 14 C1.67 14 1.34 14 1 14 C-0.512545 8.83955235 -1.33500455 5.34001821 0 0 Z " fill="#0F1822" transform="translate(214,482)"/>
<path d="M0 0 C-4.95 2.475 -4.95 2.475 -10 5 C-8 0 -8 0 -6.125 -0.875 C-4 -1 -4 -1 0 0 Z " fill="#0F1A23" transform="translate(576,472)"/>
<path d="M0 0 C-3.24725341 2.16483561 -6.50677312 4.25338656 -10 6 C-9.6875 4.125 -9.6875 4.125 -9 2 C-5.5647952 -0.29013653 -4.014669 -0.17842973 0 0 Z " fill="#15222E" transform="translate(574,487)"/>
<path d="M0 0 C0.66 0 1.32 0 2 0 C2 1.32 2 2.64 2 4 C2.66 4.33 3.32 4.66 4 5 C3.01 5 2.02 5 1 5 C0.67 5.66 0.34 6.32 0 7 C-0.66 6.34 -1.32 5.68 -2 5 C-1.34 3.35 -0.68 1.7 0 0 Z " fill="#182430" transform="translate(263,544)"/>
<path d="M0 0 C-1 1 -1 1 -4.4375 1.1875 C-8 1 -8 1 -10 -1 C-5.92224809 -1.9267618 -3.57818963 -2.33958553 0 0 Z " fill="#101C28" transform="translate(106,485)"/>
<path d="M0 0 C2.46278801 1.231394 3.42497687 2.78064923 5 5 C4.34 6.32 3.68 7.64 3 9 C2.71125 8.195625 2.4225 7.39125 2.125 6.5625 C1.26737432 3.8673532 1.26737432 3.8673532 -1 3 C-0.67 2.01 -0.34 1.02 0 0 Z " fill="#1C2A37" transform="translate(366,440)"/>
<path d="M0 0 C0.33 0.66 0.66 1.32 1 2 C3.02463255 2.65213292 3.02463255 2.65213292 5 3 C3.625 4.5 3.625 4.5 2 6 C1.34 6 0.68 6 0 6 C-0.38218767 4.34385343 -0.71395102 2.67542976 -1 1 C-0.67 0.67 -0.34 0.34 0 0 Z " fill="#18232D" transform="translate(510,546)"/>
<path d="M0 0 C0.66 0.33 1.32 0.66 2 1 C-3.14285714 6.57142857 -3.14285714 6.57142857 -7 7 C-4.66666667 4.66666667 -2.33333333 2.33333333 0 0 Z " fill="#111C25" transform="translate(261,541)"/>
<path d="M0 0 C0.33 0.66 0.66 1.32 1 2 C-0.32 3.65 -1.64 5.3 -3 7 C-3.99 6.67 -4.98 6.34 -6 6 C-4.02 4.02 -2.04 2.04 0 0 Z " fill="#111C26" transform="translate(181,540)"/>
<path d="M0 0 C0 0.33 0 0.66 0 1 C-6.4 2.23076923 -6.4 2.23076923 -9.4375 1.0625 C-9.953125 0.711875 -10.46875 0.36125 -11 0 C-6.94952424 -1.35015859 -4.2079832 -0.62084998 0 0 Z " fill="#0A131A" transform="translate(501,486)"/>
<path d="M0 0 C1.65 0 3.3 0 5 0 C5 0.33 5 0.66 5 1 C3.35 1 1.7 1 0 1 C0 0.67 0 0.34 0 0 Z " fill="#2C3D4F" transform="translate(100,503)"/>
<path d="M0 0 C4 1 4 1 4 1 Z " fill="#D02C2E" transform="translate(882,510)"/>
<path d="M0 0 C1 4 1 4 1 4 Z " fill="#2D3F4F" transform="translate(289,498)"/>
<path d="" fill="#B9383C" transform="translate(0,0)"/>
<path d="" fill="#CB2C31" transform="translate(0,0)"/>
<path d="" fill="#B8363B" transform="translate(0,0)"/>
<path d="" fill="#34404E" transform="translate(0,0)"/>
<path d="M0 0 C0.33 0.66 0.66 1.32 1 2 C0.34 1.67 -0.32 1.34 -1 1 C-0.67 0.67 -0.34 0.34 0 0 Z " fill="#314354" transform="translate(566,472)"/>
<path d="" fill="#B34043" transform="translate(0,0)"/>
<path d="M0 0 C2 1 2 1 2 1 Z " fill="#3F424E" transform="translate(751,551)"/>
<path d="M0 0 C2 1 2 1 2 1 Z " fill="#324252" transform="translate(542,551)"/>
<path d="M0 0 C2 1 2 1 2 1 Z " fill="#314050" transform="translate(196,551)"/>
<path d="M0 0 C2 1 2 1 2 1 Z " fill="#2F3E4D" transform="translate(192,551)"/>
<path d="M0 0 C2 1 2 1 2 1 Z " fill="#304153" transform="translate(100,551)"/>
<path d="M0 0 C2 1 2 1 2 1 Z " fill="#314053" transform="translate(53,551)"/>
<path d="" fill="#2E3E51" transform="translate(0,0)"/>
<path d="" fill="#344151" transform="translate(0,0)"/>
<path d="" fill="#364251" transform="translate(0,0)"/>
<path d="M0 0 C2 1 2 1 2 1 Z " fill="#2E3F4F" transform="translate(128,536)"/>
<path d="" fill="#304050" transform="translate(0,0)"/>
<path d="M0 0 C2 1 2 1 2 1 Z " fill="#D12C30" transform="translate(892,510)"/>
<path d="" fill="#2F4151" transform="translate(0,0)"/>
<path d="" fill="#2E3F50" transform="translate(0,0)"/>
<path d="M0 0 C2 1 2 1 2 1 Z " fill="#303F51" transform="translate(108,503)"/>
<path d="M0 0 C2 1 2 1 2 1 Z " fill="#2B3D4F" transform="translate(93,503)"/>
<path d="M0 0 C2 1 2 1 2 1 Z " fill="#324253" transform="translate(381,480)"/>
<path d="" fill="#2E3E51" transform="translate(0,0)"/>
<path d="M0 0 C2 1 2 1 2 1 Z " fill="#5B424D" transform="translate(808,469)"/>
<path d="M0 0 C2 1 2 1 2 1 Z " fill="#3B4050" transform="translate(771,469)"/>
<path d="M0 0 C2 1 2 1 2 1 Z " fill="#354656" transform="translate(408,467)"/>
<path d="M0 0 C2 1 2 1 2 1 Z " fill="#374756" transform="translate(369,441)"/>
<path d="" fill="#364655" transform="translate(0,0)"/>
<path d="" fill="#656665" transform="translate(0,0)"/>
<path d="" fill="#C53737" transform="translate(0,0)"/>
<path d="" fill="#CF3437" transform="translate(0,0)"/>
<path d="" fill="#B24040" transform="translate(0,0)"/>
<path d="" fill="#B53E41" transform="translate(0,0)"/>
<path d="" fill="#BA3C3F" transform="translate(0,0)"/>
<path d="" fill="#BA3A3D" transform="translate(0,0)"/>
<path d="" fill="#B93A3D" transform="translate(0,0)"/>
<path d="" fill="#6B4450" transform="translate(0,0)"/>
<path d="" fill="#394452" transform="translate(0,0)"/>
<path d="" fill="#394252" transform="translate(0,0)"/>
<path d="" fill="#384152" transform="translate(0,0)"/>
<path d="" fill="#374654" transform="translate(0,0)"/>
<path d="" fill="#334153" transform="translate(0,0)"/>
<path d="" fill="#314151" transform="translate(0,0)"/>
<path d="" fill="#324150" transform="translate(0,0)"/>
<path d="" fill="#314250" transform="translate(0,0)"/>
<path d="" fill="#314353" transform="translate(0,0)"/>
<path d="" fill="#324153" transform="translate(0,0)"/>
<path d="" fill="#B8393E" transform="translate(0,0)"/>
<path d="" fill="#6F434A" transform="translate(0,0)"/>
<path d="" fill="#454653" transform="translate(0,0)"/>
<path d="" fill="#374553" transform="translate(0,0)"/>
<path d="" fill="#314450" transform="translate(0,0)"/>
<path d="" fill="#314154" transform="translate(0,0)"/>
<path d="" fill="#B8393D" transform="translate(0,0)"/>
<path d="" fill="#344350" transform="translate(0,0)"/>
<path d="" fill="#314451" transform="translate(0,0)"/>
<path d="" fill="#334257" transform="translate(0,0)"/>
<path d="" fill="#2F3E4D" transform="translate(0,0)"/>
<path d="" fill="#B9373B" transform="translate(0,0)"/>
<path d="" fill="#B7373A" transform="translate(0,0)"/>
<path d="" fill="#354251" transform="translate(0,0)"/>
<path d="" fill="#B9373B" transform="translate(0,0)"/>
<path d="" fill="#2E4152" transform="translate(0,0)"/>
<path d="" fill="#35404F" transform="translate(0,0)"/>
<path d="" fill="#3A4250" transform="translate(0,0)"/>
<path d="" fill="#313F51" transform="translate(0,0)"/>
<path d="" fill="#2F4251" transform="translate(0,0)"/>
<path d="" fill="#BA393C" transform="translate(0,0)"/>
<path d="" fill="#6E434C" transform="translate(0,0)"/>
<path d="" fill="#BA373C" transform="translate(0,0)"/>
<path d="" fill="#384251" transform="translate(0,0)"/>
<path d="" fill="#2C404F" transform="translate(0,0)"/>
<path d="" fill="#2C4150" transform="translate(0,0)"/>
<path d="" fill="#2E3F4E" transform="translate(0,0)"/>
<path d="" fill="#5A424B" transform="translate(0,0)"/>
<path d="" fill="#453E4C" transform="translate(0,0)"/>
<path d="" fill="#354352" transform="translate(0,0)"/>
<path d="" fill="#333F50" transform="translate(0,0)"/>
<path d="" fill="#334352" transform="translate(0,0)"/>
<path d="" fill="#304151" transform="translate(0,0)"/>
<path d="" fill="#304250" transform="translate(0,0)"/>
<path d="" fill="#2D3B4F" transform="translate(0,0)"/>
<path d="" fill="#2F3F50" transform="translate(0,0)"/>
<path d="" fill="#2C3E4C" transform="translate(0,0)"/>
<path d="" fill="#43404C" transform="translate(0,0)"/>
<path d="" fill="#3C4551" transform="translate(0,0)"/>
<path d="" fill="#32404F" transform="translate(0,0)"/>
<path d="" fill="#334454" transform="translate(0,0)"/>
<path d="" fill="#2F4052" transform="translate(0,0)"/>
<path d="" fill="#463E4D" transform="translate(0,0)"/>
<path d="" fill="#364252" transform="translate(0,0)"/>
<path d="" fill="#2D3E4F" transform="translate(0,0)"/>
<path d="" fill="#2D3D4C" transform="translate(0,0)"/>
<path d="" fill="#304050" transform="translate(0,0)"/>
<path d="" fill="#3B404F" transform="translate(0,0)"/>
<path d="" fill="#2D3F50" transform="translate(0,0)"/>
<path d="" fill="#2F4053" transform="translate(0,0)"/>
<path d="" fill="#2D4151" transform="translate(0,0)"/>
<path d="" fill="#D12C33" transform="translate(0,0)"/>
<path d="" fill="#B8373B" transform="translate(0,0)"/>
<path d="" fill="#2E4150" transform="translate(0,0)"/>
<path d="" fill="#2E4050" transform="translate(0,0)"/>
<path d="" fill="#2C3E51" transform="translate(0,0)"/>
<path d="" fill="#2B4052" transform="translate(0,0)"/>
<path d="" fill="#2C3D4E" transform="translate(0,0)"/>
<path d="" fill="#304151" transform="translate(0,0)"/>
<path d="" fill="#B9363B" transform="translate(0,0)"/>
<path d="" fill="#324152" transform="translate(0,0)"/>
<path d="" fill="#324253" transform="translate(0,0)"/>
<path d="" fill="#323F50" transform="translate(0,0)"/>
<path d="" fill="#2E4251" transform="translate(0,0)"/>
<path d="" fill="#B9373A" transform="translate(0,0)"/>
<path d="" fill="#313F51" transform="translate(0,0)"/>
<path d="" fill="#2D3F4F" transform="translate(0,0)"/>
<path d="" fill="#D42E32" transform="translate(0,0)"/>
<path d="" fill="#D12D2E" transform="translate(0,0)"/>
<path d="" fill="#D02C2F" transform="translate(0,0)"/>
<path d="" fill="#D12D30" transform="translate(0,0)"/>
<path d="" fill="#CF2C30" transform="translate(0,0)"/>
<path d="" fill="#CD2C2D" transform="translate(0,0)"/>
<path d="" fill="#C92E2F" transform="translate(0,0)"/>
<path d="" fill="#BA363A" transform="translate(0,0)"/>
<path d="" fill="#CC2E31" transform="translate(0,0)"/>
<path d="" fill="#BA353A" transform="translate(0,0)"/>
<path d="" fill="#2E3F4E" transform="translate(0,0)"/>
<path d="" fill="#2C3F4E" transform="translate(0,0)"/>
<path d="" fill="#2C3D4E" transform="translate(0,0)"/>
<path d="" fill="#2B3C4E" transform="translate(0,0)"/>
<path d="" fill="#2A3D51" transform="translate(0,0)"/>
<path d="" fill="#2C3C4F" transform="translate(0,0)"/>
<path d="" fill="#2C3E4E" transform="translate(0,0)"/>
<path d="" fill="#2C3D51" transform="translate(0,0)"/>
<path d="" fill="#BA393B" transform="translate(0,0)"/>
<path d="" fill="#314051" transform="translate(0,0)"/>
<path d="" fill="#324153" transform="translate(0,0)"/>
<path d="" fill="#334051" transform="translate(0,0)"/>
<path d="" fill="#2E4151" transform="translate(0,0)"/>
<path d="" fill="#31404F" transform="translate(0,0)"/>
<path d="" fill="#2E4152" transform="translate(0,0)"/>
<path d="" fill="#2A3E4C" transform="translate(0,0)"/>
<path d="" fill="#304050" transform="translate(0,0)"/>
<path d="" fill="#2E3F53" transform="translate(0,0)"/>
<path d="" fill="#D12F33" transform="translate(0,0)"/>
<path d="" fill="#D12F32" transform="translate(0,0)"/>
<path d="" fill="#D12B30" transform="translate(0,0)"/>
<path d="" fill="#D12E30" transform="translate(0,0)"/>
<path d="" fill="#2E3D4E" transform="translate(0,0)"/>
<path d="" fill="#D22E32" transform="translate(0,0)"/>
<path d="" fill="#314050" transform="translate(0,0)"/>
<path d="" fill="#2F3F53" transform="translate(0,0)"/>
<path d="" fill="#2E3E4F" transform="translate(0,0)"/>
<path d="" fill="#2C3C4C" transform="translate(0,0)"/>
<path d="" fill="#2D3F4E" transform="translate(0,0)"/>
<path d="" fill="#2D3C4D" transform="translate(0,0)"/>
<path d="" fill="#2F4052" transform="translate(0,0)"/>
<path d="" fill="#D02E32" transform="translate(0,0)"/>
<path d="" fill="#B9373C" transform="translate(0,0)"/>
<path d="" fill="#324153" transform="translate(0,0)"/>
<path d="" fill="#2F4150" transform="translate(0,0)"/>
<path d="" fill="#B7373C" transform="translate(0,0)"/>
<path d="" fill="#364550" transform="translate(0,0)"/>
<path d="" fill="#2D4050" transform="translate(0,0)"/>
<path d="" fill="#D23033" transform="translate(0,0)"/>
<path d="" fill="#314054" transform="translate(0,0)"/>
<path d="" fill="#324150" transform="translate(0,0)"/>
<path d="" fill="#324554" transform="translate(0,0)"/>
<path d="" fill="#304250" transform="translate(0,0)"/>
<path d="" fill="#B7383C" transform="translate(0,0)"/>
<path d="" fill="#324251" transform="translate(0,0)"/>
<path d="" fill="#B8383D" transform="translate(0,0)"/>
<path d="" fill="#394453" transform="translate(0,0)"/>
<path d="" fill="#324554" transform="translate(0,0)"/>
<path d="" fill="#2E3F53" transform="translate(0,0)"/>
<path d="" fill="#314150" transform="translate(0,0)"/>
<path d="" fill="#304254" transform="translate(0,0)"/>
<path d="" fill="#334350" transform="translate(0,0)"/>
<path d="" fill="#2D4051" transform="translate(0,0)"/>
<path d="" fill="#B7363E" transform="translate(0,0)"/>
<path d="" fill="#344454" transform="translate(0,0)"/>
<path d="" fill="#324354" transform="translate(0,0)"/>
<path d="" fill="#303F50" transform="translate(0,0)"/>
<path d="" fill="#4C404E" transform="translate(0,0)"/>
<path d="" fill="#49424E" transform="translate(0,0)"/>
<path d="" fill="#334251" transform="translate(0,0)"/>
<path d="" fill="#344554" transform="translate(0,0)"/>
<path d="" fill="#B8383E" transform="translate(0,0)"/>
<path d="" fill="#2E3F51" transform="translate(0,0)"/>
<path d="" fill="#404652" transform="translate(0,0)"/>
<path d="" fill="#3B4854" transform="translate(0,0)"/>
<path d="" fill="#38485A" transform="translate(0,0)"/>
<path d="" fill="#304354" transform="translate(0,0)"/>
<path d="" fill="#4F424D" transform="translate(0,0)"/>
<path d="" fill="#424552" transform="translate(0,0)"/>
<path d="" fill="#2E3E4F" transform="translate(0,0)"/>
<path d="" fill="#B83B3E" transform="translate(0,0)"/>
<path d="" fill="#2F4253" transform="translate(0,0)"/>
<path d="" fill="#304151" transform="translate(0,0)"/>
<path d="" fill="#314153" transform="translate(0,0)"/>
<path d="" fill="#B83C3E" transform="translate(0,0)"/>
<path d="" fill="#304253" transform="translate(0,0)"/>
<path d="" fill="#324352" transform="translate(0,0)"/>
<path d="" fill="#314253" transform="translate(0,0)"/>
<path d="" fill="#324351" transform="translate(0,0)"/>
<path d="" fill="#B73E3F" transform="translate(0,0)"/>
<path d="" fill="#304252" transform="translate(0,0)"/>
<path d="" fill="#334454" transform="translate(0,0)"/>
<path d="" fill="#5D4953" transform="translate(0,0)"/>
<path d="" fill="#394957" transform="translate(0,0)"/>
</svg>
